<?xml version="1.0" encoding="utf-8"?>
<!-- Generator: Adobe Illustrator 26.2.1, SVG Export Plug-In . SVG Version: 6.00 Build 0)  -->
<svg version="1.1" id="Layer_1" xmlns="http://www.w3.org/2000/svg" xmlns:xlink="http://www.w3.org/1999/xlink" x="0px" y="0px"
	 viewBox="0 0 61.28 23.56" style="enable-background:new 0 0 61.28 23.56;" xml:space="preserve">
<style type="text/css">
	.st0{fill:#FF6A00;}
	.st1{fill:#797B7C;}
	.st2{fill:#E2231A;}
</style>
<g>
	<g>
		<path class="st0" d="M8.24,6.76C8.2,6.45,8.17,6.14,8.17,5.82c0-0.25,0.01-0.49,0.04-0.73c0.24-2.25,1.58-4.13,3.41-4.99H8.97
			L6.1,4.45L3.23,0.1H1.18L4.8,5.49h0.01l0.3,0.44l-0.3,0.44H4.8l-3.63,5.38h2.05L6.1,7.4l2.87,4.35h3.02
			C10,10.99,8.55,9.1,8.24,6.76z"/>
		<path class="st1" d="M10.94,3.92c0,0.83,0.16,1.69,0.52,2.53c0.34,0.79,0.81,1.47,1.37,2.02c-0.09-0.23-0.17-0.47-0.24-0.72
			c-0.14-0.55-0.2-1.1-0.2-1.67c0-0.57,0.07-1.13,0.2-1.67c0.14-0.55,0.35-1.04,0.63-1.47c0.29-0.44,0.66-0.78,1.12-1.04
			c0.46-0.26,1.01-0.39,1.63-0.39c0.43,0,0.81,0.06,1.13,0.18c0.33,0.12,0.61,0.29,0.86,0.5c0.24,0.21,0.45,0.47,0.6,0.77
			c0.14,0.28,0.26,0.57,0.35,0.89h1.85c-0.07-0.59-0.23-1.11-0.48-1.57c-0.26-0.48-0.61-0.89-1.03-1.23
			c-0.43-0.34-0.92-0.6-1.48-0.78C17.21,0.09,16.61,0,15.98,0c-0.85,0-1.61,0.16-2.28,0.49c-0.67,0.32-1.24,0.76-1.7,1.31
			c-0.45,0.53-0.8,1.15-1.05,1.86C10.94,3.75,10.94,3.84,10.94,3.92z"/>
		<rect x="22.27" y="0.28" class="st1" width="1.66" height="11.6"/>
		<path class="st1" d="M33.05,10.81c-0.18,0-0.34-0.05-0.42-0.19c-0.07-0.13-0.1-0.3-0.1-0.54V5.69c0-0.44-0.09-0.8-0.28-1.1
			c-0.18-0.3-0.43-0.55-0.74-0.74c-0.31-0.19-0.66-0.33-1.05-0.42c-0.39-0.09-0.79-0.13-1.19-0.13c-0.46,0-0.9,0.04-1.34,0.13
			c-0.44,0.09-0.82,0.23-1.16,0.45c-0.34,0.21-0.61,0.5-0.84,0.85c-0.2,0.33-0.33,0.74-0.37,1.23h1.67c0.06-0.44,0.26-0.79,0.6-1.01
			c0.35-0.23,0.79-0.35,1.32-0.35c0.18,0,0.38,0.01,0.59,0.04c0.21,0.03,0.41,0.09,0.59,0.17c0.18,0.09,0.33,0.22,0.45,0.38
			c0.13,0.17,0.19,0.39,0.19,0.65c0,0.29-0.07,0.52-0.23,0.68c-0.14,0.15-0.35,0.26-0.59,0.33c-0.24,0.07-0.51,0.11-0.82,0.14
			c-0.3,0.02-0.61,0.07-0.95,0.14c-0.38,0.04-0.77,0.11-1.15,0.19c-0.38,0.08-0.71,0.21-1.01,0.4c-0.3,0.18-0.53,0.43-0.71,0.74
			c-0.18,0.31-0.27,0.72-0.27,1.24c0,0.41,0.07,0.76,0.22,1.06s0.35,0.55,0.6,0.74c0.26,0.2,0.55,0.35,0.88,0.45
			c0.34,0.1,0.69,0.16,1.06,0.16c0.49,0,0.99-0.08,1.52-0.25c0.52-0.16,0.96-0.42,1.31-0.77l0.11-0.11l0.03,0.16
			c0.07,0.37,0.22,0.61,0.44,0.75c0.23,0.14,0.53,0.22,0.89,0.22c0.07,0,0.16-0.01,0.26-0.02c0.11-0.01,0.21-0.03,0.31-0.05
			c0.11-0.02,0.21-0.05,0.31-0.07c0.07-0.02,0.13-0.04,0.18-0.05v-1.13c-0.06,0.01-0.12,0.01-0.17,0.01L33.05,10.81L33.05,10.81z
			 M30.86,9.11c0,0.31-0.07,0.58-0.22,0.8c-0.14,0.21-0.33,0.39-0.55,0.53c-0.22,0.13-0.45,0.23-0.7,0.29
			c-0.24,0.06-0.47,0.09-0.68,0.09c-0.17,0-0.35-0.02-0.55-0.05c-0.2-0.04-0.4-0.1-0.57-0.18c-0.18-0.09-0.33-0.21-0.46-0.36
			c-0.13-0.16-0.2-0.36-0.2-0.59c0-0.25,0.04-0.47,0.13-0.66c0.09-0.18,0.21-0.33,0.36-0.45c0.15-0.11,0.32-0.2,0.51-0.26
			c0.18-0.06,0.38-0.11,0.58-0.14c0.41-0.08,0.82-0.13,1.23-0.17c0.4-0.04,0.72-0.15,0.99-0.33l0.13-0.09L30.86,9.11L30.86,9.11z"/>
		<path class="st1" d="M38.54,3.3c-0.27,0-0.53,0.05-0.79,0.16c-0.26,0.11-0.49,0.25-0.71,0.42s-0.4,0.37-0.55,0.58
			c-0.15,0.21-0.25,0.43-0.3,0.65l-0.01,0.07h-0.07h-0.12V3.53h-1.55v8.35h1.66V7.91c0-0.48,0.06-0.91,0.18-1.28
			c0.12-0.37,0.28-0.69,0.5-0.95c0.21-0.26,0.46-0.45,0.75-0.59c0.28-0.13,0.59-0.2,0.91-0.2c0.13,0,0.27,0.01,0.4,0.03
			c0.1,0.01,0.2,0.03,0.3,0.04V3.34c-0.06-0.01-0.12-0.01-0.17-0.02C38.9,3.31,38.75,3.3,38.54,3.3z"/>
		<rect x="40.48" y="0.28" class="st1" width="1.67" height="1.6"/>
		<rect x="40.48" y="3.53" class="st1" width="1.67" height="8.35"/>
		<path class="st1" d="M46.57,0.97H44.9v2.56h-1.39v1.23h1.39v5.12c0.01,0.35,0.05,0.66,0.11,0.92c0.06,0.26,0.16,0.47,0.32,0.64
			c0.15,0.17,0.37,0.3,0.65,0.39c0.28,0.09,0.67,0.13,1.14,0.13c0.2,0,0.4-0.01,0.59-0.03c0.17-0.02,0.34-0.04,0.52-0.06v-1.26
			c-0.1,0.02-0.2,0.03-0.3,0.04c-0.13,0.01-0.26,0.01-0.39,0.01c-0.21,0-0.38-0.02-0.51-0.08c-0.13-0.06-0.24-0.14-0.31-0.26
			c-0.07-0.11-0.11-0.25-0.13-0.4c-0.01-0.15-0.03-0.32-0.03-0.52V4.76h1.66V3.53h-1.66V0.97z"/>
		<path class="st1" d="M55.41,3.53L53.3,9.91h-0.06h-0.09l-2.18-6.37h-1.83l3.13,8.41l-0.22,0.83c-0.05,0.19-0.12,0.36-0.18,0.51
			c-0.07,0.15-0.15,0.28-0.25,0.39c-0.1,0.12-0.23,0.21-0.38,0.26c-0.16,0.06-0.34,0.09-0.57,0.09c-0.15,0-0.3-0.01-0.45-0.04
			c-0.11-0.02-0.22-0.04-0.33-0.06v1.4c0.39,0.06,0.79,0.09,1.19,0.09c0.47,0,0.86-0.08,1.15-0.23c0.3-0.15,0.55-0.36,0.76-0.62
			c0.2-0.26,0.38-0.57,0.52-0.91c0.14-0.35,0.29-0.86,0.44-1.24l3.2-8.88L55.41,3.53L55.41,3.53z"/>
		<path class="st1" d="M18.68,8.72c-0.14,0.38-0.35,0.72-0.61,1.01c-0.11,0.12-0.23,0.23-0.36,0.33l-0.03,0.02
			c-0.04,0.03-0.08,0.06-0.12,0.09c-0.27,0.19-0.56,0.37-0.88,0.5c-0.61,0.26-1.25,0.39-1.89,0.39c-1.18,0-2.36-0.43-3.34-1.19
			c0.12,0.18,0.25,0.35,0.39,0.51c0.47,0.55,1.05,0.99,1.73,1.31c0.68,0.32,1.45,0.48,2.32,0.48c0.7,0,1.34-0.11,1.92-0.34
			c0.58-0.23,1.08-0.55,1.51-0.96c0.43-0.42,0.77-0.91,1.02-1.48c0.24-0.55,0.39-1.15,0.44-1.81h-1.83
			C18.91,7.98,18.82,8.37,18.68,8.72z"/>
	</g>
	<path class="st2" d="M4.8,6.37l-3.63,5.38h2.05L6.1,7.4l2.87,4.35h3.02C10,10.99,8.55,9.1,8.24,6.76l0.02,0l-0.02,0
		C8.2,6.45,8.17,6.14,8.17,5.82c0-0.25,0.01-0.49,0.04-0.73c0.24-2.25,1.58-4.13,3.41-4.99H8.97L6.1,4.45L3.23,0.1H1.18L4.8,5.49
		h0.01l0.3,0.44l-0.3,0.44L4.8,6.37L4.8,6.37z"/>
	<g>
		<path class="st1" d="M58.42,3.7h-0.41V3.56h0.98V3.7h-0.41v1.12h-0.16L58.42,3.7L58.42,3.7z"/>
		<path class="st1" d="M59.12,3.56h0.22l0.38,1.06l0.39-1.06h0.22v1.26h-0.15V3.77h0L59.8,4.82h-0.14l-0.38-1.05h0v1.05h-0.15
			L59.12,3.56L59.12,3.56z"/>
	</g>
	<g>
		<path class="st1" d="M2.45,16.21h1.04l2.44,7.22H4.95l-1.26-4.03c-0.26-0.81-0.49-1.6-0.72-2.43H2.93
			c-0.22,0.84-0.46,1.63-0.71,2.43l-1.27,4.03H0L2.45,16.21z M1.29,20.49h3.32v0.73H1.29V20.49z"/>
		<path class="st1" d="M6.48,20.76c0-1.73,1.09-2.81,2.31-2.81c0.62,0,1.03,0.23,1.5,0.62l-0.04-0.92v-2.06h0.9v7.84h-0.75
			l-0.08-0.63h-0.03c-0.42,0.42-0.99,0.76-1.62,0.76C7.35,23.56,6.48,22.54,6.48,20.76z M10.26,22.07v-2.8
			c-0.46-0.41-0.87-0.56-1.3-0.56c-0.85,0-1.54,0.83-1.54,2.04c0,1.28,0.53,2.04,1.47,2.04C9.38,22.8,9.81,22.56,10.26,22.07z"/>
		<path class="st1" d="M12.75,18.08h0.75l0.08,0.78h0.03c0.47-0.51,1.03-0.91,1.66-0.91c0.82,0,1.26,0.39,1.48,1.02
			c0.55-0.6,1.11-1.02,1.76-1.02c1.1,0,1.63,0.73,1.63,2.09v3.39h-0.91v-3.27c0-1-0.32-1.42-1-1.42c-0.42,0-0.85,0.27-1.34,0.82
			v3.87h-0.91v-3.27c0-1-0.32-1.42-1-1.42c-0.4,0-0.85,0.27-1.34,0.82v3.87h-0.91V18.08z"/>
		<path class="st1" d="M21.26,16.4c0-0.36,0.27-0.58,0.62-0.58c0.35,0,0.62,0.23,0.62,0.58c0,0.34-0.27,0.58-0.62,0.58
			C21.53,16.98,21.26,16.74,21.26,16.4z M21.43,18.08h0.91v5.35h-0.91V18.08z"/>
		<path class="st1" d="M23.91,18.08h0.75l0.08,0.77h0.03c0.51-0.5,1.06-0.9,1.79-0.9c1.13,0,1.63,0.73,1.63,2.09v3.39h-0.9v-3.27
			c0-1-0.3-1.42-1.01-1.42c-0.55,0-0.93,0.28-1.46,0.82v3.87h-0.91V18.08z"/>
		<path class="st1" d="M29.32,16.4c0-0.36,0.27-0.58,0.62-0.58c0.35,0,0.62,0.23,0.62,0.58c0,0.34-0.27,0.58-0.62,0.58
			C29.6,16.98,29.32,16.74,29.32,16.4z M29.49,18.08h0.91v5.35h-0.91V18.08z"/>
		<path class="st1" d="M31.6,22.82l0.45-0.6c0.46,0.37,0.94,0.63,1.58,0.63c0.7,0,1.05-0.37,1.05-0.83c0-0.55-0.63-0.79-1.22-1.01
			c-0.75-0.27-1.59-0.64-1.59-1.54c0-0.86,0.69-1.52,1.84-1.52c0.67,0,1.25,0.27,1.66,0.6l-0.43,0.58
			c-0.37-0.27-0.75-0.48-1.22-0.48c-0.67,0-0.99,0.36-0.99,0.77c0,0.51,0.58,0.7,1.19,0.93c0.77,0.29,1.63,0.6,1.63,1.62
			c0,0.87-0.69,1.59-1.95,1.59C32.84,23.56,32.1,23.24,31.6,22.82z"/>
		<path class="st1" d="M36.96,21.77v-2.96h-0.79v-0.69L37,18.08l0.11-1.5h0.76v1.5h1.45v0.74h-1.45v2.97c0,0.65,0.21,1.03,0.83,1.03
			c0.19,0,0.44-0.07,0.61-0.14l0.17,0.68c-0.3,0.1-0.66,0.2-0.99,0.2C37.35,23.56,36.96,22.84,36.96,21.77z"/>
		<path class="st1" d="M40.08,18.08h0.75l0.08,0.97h0.03c0.37-0.68,0.92-1.11,1.52-1.11c0.24,0,0.4,0.03,0.57,0.11l-0.17,0.79
			c-0.18-0.06-0.3-0.09-0.52-0.09c-0.45,0-0.99,0.33-1.35,1.23v3.43h-0.91V18.08z"/>
		<path class="st1" d="M43.3,22.04c0-1.17,1-1.75,3.28-2c0-0.69-0.23-1.35-1.1-1.35c-0.62,0-1.18,0.29-1.59,0.57l-0.35-0.62
			c0.49-0.32,1.24-0.7,2.1-0.7c1.3,0,1.86,0.87,1.86,2.2v3.28h-0.75l-0.08-0.64h-0.03c-0.51,0.42-1.1,0.77-1.77,0.77
			C43.97,23.56,43.3,23,43.3,22.04z M46.59,22.12v-1.49c-1.79,0.22-2.4,0.65-2.4,1.34c0,0.61,0.41,0.86,0.94,0.86
			C45.64,22.83,46.07,22.58,46.59,22.12z"/>
		<path class="st1" d="M49.18,21.77v-2.96h-0.79v-0.69l0.84-0.05l0.11-1.5h0.76v1.5h1.45v0.74h-1.45v2.97
			c0,0.65,0.21,1.03,0.83,1.03c0.19,0,0.44-0.07,0.61-0.14l0.17,0.68c-0.3,0.1-0.66,0.2-0.99,0.2
			C49.57,23.56,49.18,22.84,49.18,21.77z"/>
		<path class="st1" d="M51.97,20.76c0-1.78,1.17-2.81,2.48-2.81c1.31,0,2.48,1.03,2.48,2.81c0,1.77-1.17,2.8-2.48,2.8
			C53.14,23.56,51.97,22.53,51.97,20.76z M55.99,20.76c0-1.23-0.62-2.06-1.54-2.06c-0.92,0-1.54,0.83-1.54,2.06s0.62,2.05,1.54,2.05
			C55.37,22.81,55.99,21.99,55.99,20.76z"/>
		<path class="st1" d="M58.33,18.08h0.75l0.08,0.97h0.03c0.37-0.68,0.92-1.11,1.52-1.11c0.24,0,0.4,0.03,0.57,0.11l-0.17,0.79
			c-0.18-0.06-0.3-0.09-0.52-0.09c-0.45,0-0.99,0.33-1.35,1.23v3.43h-0.91V18.08z"/>
	</g>
</g>
</svg>
