<?xml version="1.0" encoding="utf-8"?>
<!-- Generator: Adobe Illustrator 26.2.1, SVG Export Plug-In . SVG Version: 6.00 Build 0)  -->
<svg version="1.1" id="Layer_1" xmlns="http://www.w3.org/2000/svg" xmlns:xlink="http://www.w3.org/1999/xlink" x="0px" y="0px"
	 viewBox="0 0 62.25 25.26" style="enable-background:new 0 0 62.25 25.26;" xml:space="preserve">
<style type="text/css">
	.st0{fill:#3E8DDD;}
	.st1{fill:#797B7C;}
	.st2{fill:#77797A;}
</style>
<g>
	<g>
		<path class="st0" d="M7.43,7.02C7.39,6.71,7.36,6.39,7.36,6.06c0-0.25,0.01-0.5,0.04-0.74C7.66,3.02,9.07,1.09,11,0.21H8.2
			L5.18,4.66L2.16,0.21H0l3.81,5.51h0.01l0.32,0.45L3.83,6.63H3.82L0,12.14h2.16l3.02-4.45l3.02,4.45h3.18
			C9.29,11.36,7.76,9.42,7.43,7.02z"/>
		<path class="st1" d="M10.07,4.02c0,0.85,0.17,1.73,0.55,2.59c0.36,0.81,0.85,1.5,1.44,2.07c-0.1-0.23-0.18-0.48-0.25-0.74
			c-0.14-0.56-0.21-1.13-0.21-1.71c0-0.58,0.07-1.16,0.21-1.71c0.14-0.56,0.36-1.06,0.67-1.51c0.3-0.45,0.7-0.8,1.18-1.07
			c0.48-0.27,1.06-0.4,1.72-0.4c0.45,0,0.85,0.06,1.19,0.18c0.34,0.12,0.64,0.29,0.9,0.52c0.26,0.22,0.47,0.48,0.63,0.78
			c0.15,0.28,0.27,0.59,0.36,0.92h1.95c-0.07-0.6-0.25-1.13-0.51-1.61c-0.28-0.5-0.64-0.92-1.09-1.26c-0.45-0.35-0.97-0.61-1.56-0.8
			C16.68,0.09,16.05,0,15.38,0c-0.89,0-1.69,0.17-2.4,0.5c-0.71,0.33-1.31,0.78-1.79,1.34c-0.47,0.55-0.84,1.18-1.1,1.91
			C10.08,3.84,10.07,3.93,10.07,4.02z"/>
		<rect x="22.1" y="0.18" class="st1" width="1.75" height="11.88"/>
		<path class="st1" d="M33.64,10.96c-0.19,0-0.36-0.05-0.44-0.2c-0.08-0.13-0.11-0.31-0.11-0.56V5.72c0-0.45-0.1-0.82-0.29-1.13
			c-0.19-0.31-0.45-0.56-0.77-0.76c-0.33-0.2-0.69-0.34-1.1-0.43c-0.41-0.09-0.83-0.13-1.25-0.13c-0.48,0-0.95,0.05-1.41,0.14
			c-0.46,0.09-0.86,0.24-1.22,0.46c-0.36,0.22-0.65,0.51-0.88,0.87C25.96,5.07,25.82,5.49,25.78,6h1.75
			c0.06-0.45,0.27-0.81,0.63-1.03c0.37-0.24,0.83-0.35,1.39-0.35c0.19,0,0.4,0.02,0.62,0.04c0.22,0.03,0.43,0.09,0.62,0.18
			c0.19,0.09,0.34,0.22,0.47,0.39c0.13,0.18,0.2,0.4,0.2,0.66c0,0.29-0.08,0.53-0.24,0.7c-0.15,0.15-0.36,0.26-0.62,0.34
			c-0.25,0.07-0.54,0.12-0.86,0.15c-0.31,0.02-0.64,0.07-1,0.14c-0.4,0.05-0.81,0.11-1.21,0.19c-0.39,0.08-0.74,0.22-1.06,0.41
			c-0.31,0.18-0.56,0.44-0.75,0.76c-0.19,0.32-0.28,0.74-0.28,1.27c0,0.42,0.08,0.77,0.24,1.08c0.16,0.31,0.37,0.56,0.63,0.76
			c0.27,0.2,0.58,0.35,0.93,0.46c0.35,0.1,0.72,0.16,1.11,0.16c0.51,0,1.05-0.08,1.6-0.25c0.55-0.17,1.01-0.43,1.38-0.79l0.12-0.12
			l0.03,0.17c0.07,0.38,0.23,0.62,0.47,0.77c0.25,0.15,0.56,0.23,0.94,0.23c0.07,0,0.17-0.01,0.28-0.02
			c0.11-0.01,0.22-0.03,0.33-0.05c0.12-0.02,0.22-0.05,0.33-0.08c0.07-0.02,0.14-0.04,0.19-0.05v-1.16
			c-0.07,0.01-0.13,0.02-0.18,0.02L33.64,10.96L33.64,10.96z M31.34,9.21c0,0.32-0.07,0.59-0.24,0.82c-0.15,0.22-0.35,0.4-0.58,0.54
			c-0.23,0.14-0.47,0.24-0.73,0.3c-0.25,0.06-0.49,0.09-0.71,0.09c-0.18,0-0.37-0.02-0.58-0.05c-0.22-0.04-0.42-0.1-0.6-0.19
			c-0.19-0.09-0.35-0.21-0.48-0.37c-0.13-0.17-0.21-0.37-0.21-0.6c0-0.26,0.04-0.48,0.13-0.68c0.09-0.19,0.22-0.34,0.38-0.46
			c0.16-0.11,0.33-0.2,0.54-0.27c0.19-0.06,0.4-0.11,0.61-0.15c0.43-0.08,0.87-0.14,1.3-0.18c0.42-0.04,0.76-0.15,1.04-0.33
			l0.14-0.09L31.34,9.21L31.34,9.21z"/>
		<path class="st1" d="M39.32,3.27c-0.28,0-0.56,0.05-0.83,0.16c-0.27,0.11-0.52,0.25-0.75,0.43c-0.23,0.18-0.42,0.38-0.58,0.6
			C37,4.68,36.89,4.9,36.84,5.13l-0.01,0.07h-0.07h-0.13V3.5H35v8.55h1.75V7.99c0-0.49,0.06-0.93,0.19-1.31
			c0.13-0.38,0.3-0.71,0.53-0.97c0.22-0.26,0.49-0.46,0.79-0.6c0.3-0.14,0.62-0.2,0.96-0.2c0.14,0,0.28,0.01,0.42,0.03
			c0.1,0.01,0.21,0.03,0.31,0.04V3.31c-0.06-0.01-0.12-0.02-0.18-0.02C39.69,3.28,39.54,3.27,39.32,3.27z"/>
		<rect x="41.35" y="0.18" class="st1" width="1.75" height="1.64"/>
		<rect x="41.35" y="3.51" class="st1" width="1.75" height="8.55"/>
		<path class="st1" d="M47.76,0.89H46v2.62h-1.46v1.25H46V10c0.01,0.36,0.05,0.68,0.11,0.95c0.06,0.27,0.17,0.49,0.33,0.66
			c0.16,0.17,0.39,0.31,0.69,0.4s0.7,0.14,1.2,0.14c0.21,0,0.42-0.01,0.62-0.03c0.18-0.02,0.36-0.04,0.54-0.06v-1.29
			c-0.1,0.02-0.21,0.03-0.31,0.04c-0.14,0.01-0.28,0.01-0.41,0.01c-0.22,0-0.4-0.02-0.54-0.08c-0.14-0.06-0.25-0.14-0.32-0.26
			c-0.07-0.12-0.11-0.26-0.13-0.41c-0.01-0.15-0.03-0.33-0.03-0.54V4.76h1.75V3.51h-1.75V0.89z"/>
		<path class="st1" d="M57.07,3.51l-2.22,6.35h-0.07h-0.1l-2.29-6.35h-1.92l3.29,8.39l-0.23,0.83c-0.06,0.19-0.12,0.36-0.19,0.51
			c-0.07,0.15-0.16,0.28-0.26,0.39c-0.11,0.12-0.24,0.2-0.4,0.26c-0.16,0.06-0.36,0.09-0.59,0.09c-0.16,0-0.32-0.01-0.48-0.04
			c-0.11-0.02-0.23-0.04-0.35-0.06v1.4c0.41,0.06,0.83,0.09,1.25,0.09c0.5,0,0.91-0.08,1.21-0.23c0.32-0.15,0.58-0.36,0.8-0.61
			c0.21-0.26,0.4-0.57,0.55-0.91c0.15-0.35,0.3-0.86,0.47-1.24l3.36-8.85L57.07,3.51L57.07,3.51z"/>
		<path class="st1" d="M18.32,8.72c-0.15,0.39-0.36,0.74-0.64,1.04c-0.12,0.13-0.25,0.24-0.38,0.34l-0.03,0.02
			c-0.04,0.03-0.08,0.06-0.13,0.09c-0.28,0.2-0.59,0.38-0.92,0.52c-0.64,0.27-1.32,0.4-1.99,0.4c-1.24,0-2.48-0.44-3.52-1.22
			c0.13,0.18,0.26,0.36,0.41,0.52c0.5,0.56,1.1,1.01,1.82,1.34c0.71,0.32,1.53,0.49,2.44,0.49c0.74,0,1.41-0.11,2.02-0.35
			c0.61-0.23,1.14-0.56,1.59-0.98c0.45-0.43,0.81-0.93,1.07-1.52c0.25-0.56,0.41-1.18,0.46-1.85h-1.92
			C18.56,7.96,18.46,8.35,18.32,8.72z"/>
	</g>
	<path class="st0" d="M3.82,6.62L0,12.13h2.16l3.02-4.45l3.02,4.45h3.18c-2.09-0.77-3.63-2.71-3.95-5.11l0.02,0l-0.02,0
		C7.39,6.71,7.36,6.39,7.36,6.06c0-0.25,0.01-0.5,0.04-0.74C7.66,3.02,9.07,1.09,11,0.21H8.2L5.18,4.66L2.16,0.21H0l3.81,5.51h0.01
		l0.32,0.45L3.83,6.63L3.82,6.62L3.82,6.62z"/>
	<g>
		<path class="st1" d="M60.23,3.68H59.8V3.54h1.03v0.14H60.4v1.15h-0.17L60.23,3.68L60.23,3.68z"/>
		<path class="st1" d="M60.97,3.54h0.23l0.4,1.09l0.41-1.09h0.23v1.29h-0.16V3.75h0l-0.4,1.07h-0.15l-0.4-1.07h0v1.07h-0.16
			L60.97,3.54L60.97,3.54z"/>
	</g>
	<g>
		<path class="st2" d="M1.49,21.74c0-0.7,0.1-1.29,0.31-1.77c0.16-0.35,0.37-0.67,0.64-0.94c0.27-0.28,0.56-0.49,0.88-0.62
			c0.43-0.18,0.92-0.27,1.47-0.27c1.01,0,1.81,0.31,2.42,0.94c0.61,0.63,0.91,1.5,0.91,2.62c0,1.11-0.3,1.98-0.9,2.61
			c-0.6,0.63-1.4,0.94-2.41,0.94c-1.02,0-1.83-0.31-2.43-0.94C1.79,23.7,1.49,22.84,1.49,21.74z M2.92,21.7
			c0,0.78,0.18,1.37,0.54,1.77c0.36,0.4,0.81,0.6,1.36,0.6c0.55,0,1-0.2,1.35-0.6c0.35-0.4,0.53-1,0.53-1.8
			c0-0.79-0.17-1.38-0.52-1.76c-0.34-0.39-0.8-0.58-1.37-0.58c-0.57,0-1.03,0.2-1.38,0.59S2.92,20.9,2.92,21.7z"/>
		<path class="st2" d="M10.44,25.14H9.13v-4.99h1.22v0.71c0.21-0.33,0.4-0.56,0.56-0.66c0.17-0.11,0.36-0.16,0.57-0.16
			c0.3,0,0.59,0.08,0.86,0.25l-0.41,1.15c-0.22-0.14-0.43-0.22-0.62-0.22c-0.18,0-0.34,0.05-0.47,0.15s-0.23,0.29-0.3,0.55
			s-0.11,0.82-0.11,1.67V25.14z"/>
		<path class="st2" d="M17.25,21.63l-1.29,0.24c-0.04-0.26-0.14-0.46-0.3-0.59c-0.15-0.13-0.35-0.2-0.6-0.2
			c-0.33,0-0.59,0.11-0.78,0.34c-0.19,0.23-0.29,0.61-0.29,1.14c0,0.59,0.1,1.01,0.3,1.25c0.2,0.24,0.46,0.37,0.8,0.37
			c0.25,0,0.45-0.07,0.61-0.21c0.16-0.14,0.27-0.39,0.34-0.74l1.29,0.22c-0.13,0.59-0.39,1.04-0.77,1.35s-0.89,0.46-1.53,0.46
			c-0.72,0-1.3-0.23-1.73-0.69s-0.65-1.1-0.65-1.91c0-0.82,0.22-1.46,0.65-1.92c0.43-0.46,1.02-0.69,1.75-0.69
			c0.6,0,1.08,0.13,1.44,0.39C16.84,20.7,17.1,21.09,17.25,21.63z"/>
		<path class="st2" d="M19.55,18.26v2.53c0.42-0.5,0.93-0.75,1.52-0.75c0.3,0,0.57,0.06,0.82,0.17c0.24,0.11,0.42,0.26,0.55,0.43
			c0.12,0.17,0.21,0.37,0.25,0.58s0.07,0.54,0.07,0.99v2.93h-1.31v-2.63c0-0.52-0.02-0.85-0.07-1s-0.14-0.25-0.26-0.34
			s-0.28-0.12-0.47-0.12c-0.22,0-0.41,0.05-0.58,0.16c-0.17,0.11-0.3,0.27-0.38,0.48c-0.08,0.21-0.12,0.53-0.12,0.95v2.5h-1.31
			v-6.88H19.55z"/>
		<path class="st2" d="M26.87,23.55l1.31,0.22c-0.17,0.48-0.43,0.85-0.8,1.1s-0.82,0.38-1.36,0.38c-0.86,0-1.5-0.28-1.91-0.85
			c-0.33-0.45-0.49-1.03-0.49-1.72c0-0.83,0.21-1.47,0.64-1.94c0.43-0.47,0.97-0.7,1.63-0.7c0.74,0,1.32,0.25,1.75,0.74
			c0.43,0.49,0.63,1.24,0.61,2.25h-3.29c0.01,0.39,0.12,0.7,0.32,0.91s0.45,0.33,0.76,0.33c0.21,0,0.38-0.06,0.52-0.17
			C26.69,23.99,26.8,23.81,26.87,23.55z M26.94,22.22c-0.01-0.38-0.11-0.67-0.29-0.87c-0.19-0.2-0.41-0.3-0.68-0.3
			c-0.29,0-0.52,0.1-0.71,0.31s-0.28,0.49-0.28,0.85H26.94z"/>
		<path class="st2" d="M28.85,23.72l1.32-0.2c0.06,0.26,0.17,0.45,0.34,0.58c0.17,0.13,0.41,0.2,0.72,0.2
			c0.34,0,0.59-0.06,0.77-0.19c0.12-0.09,0.17-0.21,0.17-0.35c0-0.1-0.03-0.18-0.09-0.25c-0.07-0.06-0.21-0.12-0.44-0.17
			c-1.06-0.23-1.73-0.45-2.01-0.64c-0.39-0.27-0.59-0.64-0.59-1.12c0-0.43,0.17-0.79,0.51-1.09c0.34-0.29,0.86-0.44,1.58-0.44
			c0.68,0,1.18,0.11,1.51,0.33c0.33,0.22,0.56,0.55,0.68,0.99l-1.24,0.23c-0.05-0.19-0.15-0.34-0.3-0.45
			c-0.15-0.1-0.36-0.16-0.63-0.16c-0.34,0-0.59,0.05-0.74,0.15c-0.1,0.07-0.15,0.16-0.15,0.27c0,0.09,0.04,0.17,0.13,0.24
			c0.12,0.09,0.53,0.21,1.22,0.37c0.7,0.16,1.19,0.36,1.46,0.59c0.27,0.24,0.41,0.56,0.41,0.98c0,0.46-0.19,0.85-0.57,1.18
			c-0.38,0.33-0.94,0.49-1.68,0.49c-0.67,0-1.21-0.14-1.6-0.41S28.97,24.19,28.85,23.72z"/>
		<path class="st2" d="M36.87,20.16v1.05h-0.89v2.01c0,0.41,0.01,0.64,0.03,0.71c0.02,0.07,0.05,0.12,0.12,0.17s0.13,0.07,0.22,0.07
			c0.12,0,0.3-0.04,0.53-0.13l0.11,1.02c-0.3,0.13-0.65,0.2-1.04,0.2c-0.24,0-0.45-0.04-0.64-0.12c-0.19-0.08-0.33-0.18-0.42-0.31
			c-0.09-0.13-0.15-0.3-0.18-0.51c-0.03-0.15-0.04-0.46-0.04-0.93v-2.17h-0.6v-1.05h0.6v-0.99l1.32-0.77v1.76H36.87z"/>
		<path class="st2" d="M39.03,25.14h-1.31v-4.99h1.22v0.71c0.21-0.33,0.4-0.56,0.56-0.66c0.17-0.11,0.35-0.16,0.57-0.16
			c0.3,0,0.59,0.08,0.86,0.25l-0.41,1.15c-0.22-0.14-0.43-0.22-0.62-0.22c-0.18,0-0.34,0.05-0.47,0.15c-0.13,0.1-0.23,0.29-0.3,0.55
			s-0.11,0.82-0.11,1.67V25.14z"/>
		<path class="st2" d="M42.53,21.68l-1.19-0.22c0.13-0.48,0.36-0.84,0.69-1.07c0.33-0.23,0.81-0.35,1.46-0.35
			c0.58,0,1.02,0.07,1.31,0.21c0.29,0.14,0.49,0.32,0.6,0.53c0.12,0.21,0.17,0.61,0.17,1.18l-0.01,1.54c0,0.44,0.02,0.76,0.06,0.97
			s0.12,0.43,0.24,0.67h-1.3c-0.03-0.09-0.08-0.22-0.13-0.39c-0.02-0.08-0.04-0.13-0.05-0.16c-0.22,0.22-0.46,0.38-0.72,0.49
			s-0.53,0.16-0.82,0.16c-0.51,0-0.91-0.14-1.21-0.42c-0.29-0.28-0.44-0.63-0.44-1.06c0-0.28,0.07-0.53,0.2-0.75
			s0.32-0.39,0.56-0.51c0.24-0.12,0.59-0.22,1.04-0.31c0.61-0.12,1.04-0.22,1.27-0.32v-0.13c0-0.25-0.06-0.43-0.19-0.54
			c-0.12-0.11-0.36-0.16-0.71-0.16c-0.23,0-0.42,0.05-0.55,0.14C42.71,21.28,42.61,21.45,42.53,21.68z M44.28,22.75
			c-0.17,0.06-0.43,0.12-0.8,0.2s-0.6,0.16-0.71,0.23c-0.17,0.12-0.26,0.28-0.26,0.46c0,0.18,0.07,0.34,0.21,0.48
			c0.14,0.13,0.31,0.2,0.52,0.2c0.24,0,0.46-0.08,0.68-0.24c0.16-0.12,0.26-0.26,0.31-0.44c0.03-0.11,0.05-0.33,0.05-0.64V22.75z"/>
		<path class="st2" d="M49.1,20.16v1.05h-0.9v2.01c0,0.41,0.01,0.64,0.03,0.71c0.02,0.07,0.06,0.12,0.12,0.17s0.13,0.07,0.22,0.07
			c0.12,0,0.3-0.04,0.53-0.13l0.11,1.02c-0.3,0.13-0.65,0.2-1.04,0.2c-0.24,0-0.45-0.04-0.64-0.12c-0.19-0.08-0.33-0.18-0.42-0.31
			c-0.09-0.13-0.15-0.3-0.18-0.51c-0.03-0.15-0.04-0.46-0.04-0.93v-2.17h-0.6v-1.05h0.6v-0.99l1.32-0.77v1.76H49.1z"/>
		<path class="st2" d="M49.72,22.58c0-0.44,0.11-0.86,0.32-1.27c0.21-0.41,0.52-0.72,0.91-0.94s0.83-0.32,1.32-0.32
			c0.75,0,1.36,0.25,1.84,0.74c0.48,0.49,0.72,1.11,0.72,1.86c0,0.75-0.24,1.38-0.73,1.88c-0.48,0.5-1.09,0.74-1.83,0.74
			c-0.45,0-0.89-0.1-1.3-0.31c-0.41-0.21-0.73-0.51-0.94-0.91C49.83,23.64,49.72,23.15,49.72,22.58z M51.06,22.65
			c0,0.5,0.12,0.87,0.35,1.14s0.52,0.39,0.86,0.39c0.34,0,0.63-0.13,0.86-0.39s0.35-0.64,0.35-1.15c0-0.49-0.12-0.86-0.35-1.13
			s-0.52-0.39-0.86-0.39c-0.34,0-0.63,0.13-0.86,0.39S51.06,22.15,51.06,22.65z"/>
		<path class="st2" d="M57.03,25.14h-1.31v-4.99h1.22v0.71c0.21-0.33,0.4-0.56,0.56-0.66c0.17-0.11,0.35-0.16,0.57-0.16
			c0.3,0,0.59,0.08,0.86,0.25l-0.41,1.15c-0.22-0.14-0.43-0.22-0.62-0.22c-0.18,0-0.34,0.05-0.47,0.15c-0.13,0.1-0.23,0.29-0.3,0.55
			s-0.11,0.82-0.11,1.67V25.14z"/>
	</g>
</g>
</svg>
