<?xml version="1.0" encoding="utf-8"?>
<!-- Generator: Adobe Illustrator 26.2.1, SVG Export Plug-In . SVG Version: 6.00 Build 0)  -->
<svg version="1.1" id="Layer_1" xmlns="http://www.w3.org/2000/svg" xmlns:xlink="http://www.w3.org/1999/xlink" x="0px" y="0px"
	 viewBox="0 0 61.66 25.19" style="enable-background:new 0 0 61.66 25.19;" xml:space="preserve">
<style type="text/css">
	.st0{fill:#FF6A00;}
	.st1{fill:#797B7C;}
	.st2{fill:#6ABF4A;}
</style>
<g>
	<g>
		<path class="st0" d="M7.06,6.75c-0.04-0.3-0.07-0.62-0.07-0.94c0-0.25,0.01-0.49,0.04-0.73c0.24-2.25,1.58-4.13,3.41-4.99H7.79
			L4.92,4.45L2.05,0.1H0l3.63,5.39h0.01l0.3,0.44l-0.3,0.44H3.63L0,11.75h2.05L4.92,7.4l2.87,4.35h3.02
			C8.83,10.99,7.37,9.1,7.06,6.75z"/>
		<path class="st1" d="M10.26,3.92c0,0.83,0.16,1.69,0.52,2.53c0.34,0.79,0.81,1.47,1.37,2.02c-0.09-0.23-0.17-0.47-0.24-0.72
			c-0.14-0.55-0.2-1.1-0.2-1.67c0-0.57,0.07-1.13,0.2-1.67c0.14-0.55,0.35-1.04,0.63-1.47c0.29-0.44,0.66-0.78,1.12-1.04
			c0.46-0.26,1.01-0.39,1.63-0.39c0.43,0,0.81,0.06,1.13,0.18c0.33,0.12,0.61,0.29,0.86,0.5c0.24,0.21,0.45,0.47,0.6,0.77
			c0.14,0.28,0.26,0.57,0.35,0.89h1.85c-0.07-0.59-0.23-1.11-0.48-1.57c-0.26-0.48-0.61-0.89-1.03-1.23
			c-0.43-0.34-0.92-0.6-1.48-0.78C16.54,0.09,15.94,0,15.3,0c-0.85,0-1.61,0.16-2.28,0.49c-0.67,0.32-1.24,0.76-1.7,1.31
			c-0.45,0.53-0.8,1.15-1.05,1.86C10.26,3.75,10.26,3.84,10.26,3.92z"/>
		<rect x="21.8" y="0.28" class="st1" width="1.66" height="11.6"/>
		<path class="st1" d="M32.98,10.81c-0.18,0-0.34-0.05-0.42-0.19c-0.07-0.13-0.1-0.3-0.1-0.54V5.69c0-0.44-0.09-0.8-0.28-1.1
			c-0.18-0.3-0.43-0.55-0.74-0.74c-0.31-0.19-0.66-0.33-1.05-0.42C30,3.34,29.61,3.3,29.21,3.3c-0.46,0-0.9,0.04-1.34,0.13
			c-0.44,0.09-0.82,0.23-1.16,0.45c-0.34,0.21-0.61,0.5-0.84,0.85c-0.2,0.33-0.33,0.74-0.37,1.23h1.67c0.06-0.44,0.26-0.79,0.6-1.01
			c0.35-0.23,0.79-0.35,1.32-0.35c0.18,0,0.38,0.01,0.59,0.04c0.21,0.03,0.41,0.09,0.59,0.17c0.18,0.09,0.33,0.22,0.45,0.38
			c0.13,0.17,0.19,0.39,0.19,0.65c0,0.29-0.07,0.52-0.23,0.68c-0.14,0.15-0.35,0.26-0.59,0.33C29.85,6.93,29.58,6.98,29.27,7
			c-0.3,0.02-0.61,0.07-0.95,0.14c-0.38,0.04-0.77,0.11-1.15,0.19c-0.38,0.08-0.71,0.21-1.01,0.4c-0.3,0.18-0.53,0.43-0.71,0.74
			c-0.18,0.31-0.27,0.72-0.27,1.24c0,0.41,0.07,0.76,0.22,1.06s0.35,0.55,0.6,0.74c0.26,0.2,0.55,0.35,0.88,0.45
			c0.34,0.1,0.69,0.16,1.06,0.16c0.49,0,0.99-0.08,1.52-0.25c0.52-0.16,0.96-0.42,1.31-0.77l0.11-0.11l0.03,0.16
			c0.07,0.37,0.22,0.61,0.44,0.75c0.23,0.14,0.53,0.22,0.89,0.22c0.07,0,0.16-0.01,0.26-0.02c0.11-0.01,0.21-0.03,0.31-0.05
			c0.11-0.02,0.21-0.05,0.31-0.07c0.07-0.02,0.13-0.04,0.18-0.05v-1.13c-0.06,0.01-0.12,0.01-0.17,0.01L32.98,10.81L32.98,10.81z
			 M30.79,9.1c0,0.31-0.07,0.58-0.22,0.8c-0.14,0.21-0.33,0.39-0.55,0.53c-0.22,0.13-0.45,0.23-0.7,0.29
			c-0.24,0.06-0.47,0.09-0.68,0.09c-0.17,0-0.35-0.02-0.55-0.05c-0.2-0.04-0.4-0.1-0.57-0.18c-0.18-0.09-0.33-0.21-0.46-0.36
			c-0.13-0.16-0.2-0.36-0.2-0.59c0-0.25,0.04-0.47,0.13-0.66c0.09-0.18,0.21-0.33,0.36-0.45c0.15-0.11,0.32-0.2,0.51-0.26
			c0.18-0.06,0.38-0.11,0.58-0.14c0.41-0.08,0.82-0.13,1.23-0.17c0.4-0.04,0.72-0.15,0.99-0.33l0.13-0.09L30.79,9.1L30.79,9.1z"/>
		<path class="st1" d="M38.76,3.3c-0.27,0-0.53,0.05-0.79,0.16c-0.26,0.11-0.49,0.25-0.71,0.42s-0.4,0.37-0.55,0.58
			c-0.15,0.21-0.25,0.43-0.3,0.65L36.4,5.18h-0.07h-0.12V3.53h-1.55v8.35h1.66V7.91c0-0.48,0.06-0.91,0.18-1.28
			c0.12-0.37,0.28-0.69,0.5-0.95c0.21-0.26,0.46-0.45,0.75-0.59c0.28-0.13,0.59-0.2,0.91-0.2c0.13,0,0.27,0.01,0.4,0.03
			c0.1,0.01,0.2,0.03,0.3,0.04V3.33c-0.06-0.01-0.12-0.01-0.17-0.02C39.13,3.31,38.98,3.3,38.76,3.3z"/>
		<rect x="40.9" y="0.28" class="st1" width="1.67" height="1.6"/>
		<rect x="40.9" y="3.53" class="st1" width="1.67" height="8.35"/>
		<path class="st1" d="M47.19,0.97h-1.67v2.56h-1.39v1.23h1.39v5.12c0.01,0.35,0.05,0.66,0.11,0.92c0.06,0.26,0.16,0.47,0.32,0.64
			c0.15,0.17,0.37,0.3,0.65,0.39c0.28,0.09,0.67,0.13,1.14,0.13c0.2,0,0.4-0.01,0.59-0.03c0.17-0.02,0.34-0.04,0.52-0.06v-1.26
			c-0.1,0.02-0.2,0.03-0.3,0.04c-0.13,0.01-0.26,0.01-0.39,0.01c-0.21,0-0.38-0.02-0.51-0.08c-0.13-0.06-0.24-0.14-0.31-0.26
			c-0.07-0.11-0.11-0.25-0.12-0.4C47.2,9.78,47.19,9.6,47.19,9.4V4.76h1.66V3.53h-1.66V0.97z"/>
		<path class="st1" d="M56.44,3.53L54.32,9.9h-0.06h-0.09l-2.18-6.37h-1.83l3.13,8.41l-0.22,0.83c-0.05,0.19-0.12,0.36-0.18,0.51
			c-0.07,0.15-0.15,0.28-0.25,0.39c-0.1,0.12-0.23,0.21-0.38,0.26c-0.16,0.06-0.34,0.09-0.57,0.09c-0.15,0-0.3-0.01-0.45-0.04
			c-0.11-0.02-0.22-0.04-0.33-0.06v1.4c0.39,0.06,0.79,0.09,1.19,0.09c0.47,0,0.86-0.08,1.15-0.23c0.3-0.15,0.55-0.36,0.76-0.62
			c0.2-0.26,0.38-0.57,0.52-0.91c0.14-0.35,0.29-0.86,0.44-1.24l3.2-8.88L56.44,3.53L56.44,3.53z"/>
		<path class="st1" d="M18,8.72c-0.14,0.38-0.35,0.72-0.61,1.01c-0.11,0.12-0.23,0.23-0.36,0.33l-0.03,0.02
			c-0.04,0.03-0.08,0.06-0.12,0.09c-0.27,0.19-0.56,0.37-0.88,0.5c-0.61,0.26-1.25,0.39-1.89,0.39c-1.18,0-2.36-0.43-3.34-1.19
			c0.12,0.18,0.25,0.35,0.39,0.51c0.47,0.55,1.05,0.99,1.73,1.31c0.68,0.32,1.45,0.48,2.32,0.48c0.7,0,1.34-0.11,1.92-0.34
			c0.58-0.23,1.08-0.55,1.51-0.96c0.43-0.42,0.77-0.91,1.02-1.48c0.24-0.55,0.39-1.15,0.44-1.81h-1.83
			C18.23,7.98,18.14,8.37,18,8.72z"/>
	</g>
	<path class="st2" d="M3.63,6.36L0,11.75h2.05L4.92,7.4l2.87,4.35h3.02C8.83,10.99,7.37,9.1,7.06,6.75l0.02,0l-0.02,0
		c-0.04-0.3-0.07-0.62-0.07-0.94c0-0.25,0.01-0.49,0.04-0.73c0.24-2.25,1.58-4.13,3.41-4.99H7.79L4.92,4.45L2.05,0.1H0l3.63,5.39
		h0.01l0.3,0.44l-0.3,0.44L3.63,6.36L3.63,6.36z"/>
	<g>
		<path class="st1" d="M59.54,3.7h-0.41V3.56h0.98V3.7H59.7v1.12h-0.16L59.54,3.7L59.54,3.7z"/>
		<path class="st1" d="M60.45,3.56h0.22l0.38,1.06l0.39-1.06h0.22v1.26h-0.15V3.77h0l-0.38,1.05h-0.14L60.6,3.77h0v1.05h-0.15
			L60.45,3.56L60.45,3.56z"/>
	</g>
	<g>
		<path class="st1" d="M7.11,15.72h0.96v7.55H7.11V15.72z"/>
		<path class="st1" d="M10.04,17.68h0.78l0.08,0.81h0.03c0.53-0.52,1.11-0.94,1.88-0.94c1.18,0,1.71,0.76,1.71,2.19v3.54h-0.95
			v-3.42c0-1.04-0.31-1.49-1.05-1.49c-0.57,0-0.97,0.29-1.53,0.86v4.05h-0.95V17.68z"/>
		<path class="st1" d="M16.5,21.54v-3.09h-0.83v-0.72l0.87-0.05l0.11-1.57h0.79v1.57h1.52v0.77h-1.52v3.11
			c0,0.68,0.22,1.08,0.87,1.08c0.2,0,0.46-0.08,0.64-0.15l0.18,0.71c-0.31,0.11-0.69,0.21-1.04,0.21
			C16.9,23.41,16.5,22.65,16.5,21.54z"/>
		<path class="st1" d="M20.11,20.48c0-1.82,1.23-2.94,2.51-2.94c1.43,0,2.23,1.02,2.23,2.62c0,0.2-0.02,0.4-0.04,0.54h-3.77
			c0.07,1.19,0.79,1.95,1.86,1.95c0.54,0,0.98-0.17,1.39-0.45l0.34,0.62c-0.49,0.32-1.09,0.58-1.85,0.58
			C21.29,23.41,20.11,22.32,20.11,20.48z M24.01,20.02c0-1.12-0.5-1.73-1.38-1.73c-0.79,0-1.49,0.63-1.6,1.73H24.01z"/>
		<path class="st1" d="M25.45,23.81c0-0.44,0.31-0.86,0.82-1.17V22.6c-0.29-0.16-0.5-0.44-0.5-0.84c0-0.43,0.33-0.77,0.62-0.96
			v-0.04c-0.37-0.27-0.72-0.77-0.72-1.38c0-1.13,0.96-1.84,2.1-1.84c0.31,0,0.59,0.06,0.79,0.13h1.95v0.67h-1.15
			c0.26,0.23,0.46,0.62,0.46,1.06c0,1.1-0.91,1.79-2.05,1.79c-0.27,0-0.58-0.06-0.83-0.17c-0.2,0.16-0.36,0.33-0.36,0.61
			c0,0.33,0.23,0.56,0.98,0.56h1.09c1.3,0,1.95,0.38,1.95,1.23c0,0.96-1.1,1.78-2.83,1.78C26.4,25.19,25.45,24.7,25.45,23.81z
			 M29.67,23.54c0-0.48-0.39-0.64-1.13-0.64h-0.96c-0.21,0-0.48-0.02-0.73-0.08c-0.4,0.26-0.57,0.57-0.57,0.86
			c0,0.55,0.61,0.9,1.62,0.9C28.97,24.59,29.67,24.08,29.67,23.54z M28.95,19.37c0-0.75-0.53-1.2-1.19-1.2s-1.19,0.45-1.19,1.2
			c0,0.75,0.54,1.22,1.19,1.22S28.95,20.12,28.95,19.37z"/>
		<path class="st1" d="M31.67,17.68h0.78l0.08,1.02h0.03c0.39-0.71,0.96-1.16,1.59-1.16c0.25,0,0.42,0.03,0.6,0.12l-0.18,0.83
			c-0.19-0.06-0.32-0.09-0.54-0.09c-0.47,0-1.04,0.34-1.42,1.29v3.59h-0.95V17.68z"/>
		<path class="st1" d="M35.04,21.82c0-1.22,1.05-1.83,3.44-2.09c0-0.72-0.24-1.41-1.15-1.41c-0.65,0-1.23,0.31-1.67,0.6l-0.37-0.65
			c0.51-0.34,1.3-0.73,2.2-0.73c1.36,0,1.94,0.91,1.94,2.3v3.43h-0.78l-0.08-0.67h-0.03c-0.53,0.44-1.16,0.81-1.85,0.81
			C35.75,23.41,35.04,22.83,35.04,21.82z M38.48,21.9v-1.55c-1.87,0.23-2.51,0.68-2.51,1.4c0,0.64,0.43,0.89,0.98,0.89
			C37.49,22.64,37.94,22.38,38.48,21.9z"/>
		<path class="st1" d="M41.19,21.54v-3.09h-0.83v-0.72l0.87-0.05l0.11-1.57h0.79v1.57h1.52v0.77h-1.52v3.11
			c0,0.68,0.22,1.08,0.87,1.08c0.2,0,0.46-0.08,0.64-0.15l0.18,0.71c-0.31,0.11-0.69,0.21-1.04,0.21
			C41.59,23.41,41.19,22.65,41.19,21.54z"/>
		<path class="st1" d="M44.57,20.48c0-1.87,1.22-2.94,2.59-2.94c1.37,0,2.59,1.08,2.59,2.94c0,1.85-1.22,2.93-2.59,2.93
			C45.79,23.41,44.57,22.33,44.57,20.48z M48.77,20.48c0-1.28-0.65-2.15-1.61-2.15c-0.96,0-1.61,0.87-1.61,2.15s0.65,2.14,1.61,2.14
			C48.12,22.62,48.77,21.76,48.77,20.48z"/>
		<path class="st1" d="M51.21,17.68H52l0.08,1.02h0.03c0.39-0.71,0.96-1.16,1.59-1.16c0.25,0,0.42,0.03,0.6,0.12l-0.18,0.83
			c-0.19-0.06-0.32-0.09-0.54-0.09c-0.47,0-1.04,0.34-1.42,1.29v3.59h-0.95V17.68z"/>
	</g>
</g>
</svg>
