<?xml version="1.0" encoding="utf-8"?>
<!-- Generator: Adobe Illustrator 26.2.1, SVG Export Plug-In . SVG Version: 6.00 Build 0)  -->
<svg version="1.1" id="Layer_1" xmlns="http://www.w3.org/2000/svg" xmlns:xlink="http://www.w3.org/1999/xlink" x="0px" y="0px"
	 viewBox="0 0 72.2 25.4" style="enable-background:new 0 0 72.2 25.4;" xml:space="preserve">
<style type="text/css">
	.st0{fill:#FF6A00;}
	.st1{fill:#797B7C;}
	.st2{fill:#FA7207;}
</style>
<g>
	<g>
		<path class="st0" d="M13.9,6.6c0-0.3-0.1-0.6-0.1-0.9c0-0.2,0-0.5,0-0.7c0.2-2.2,1.7-4,3.6-4.8h-2.8l-3,4.2l-3-4.2H6.5l3.8,5.2h0
			l0.3,0.4l-0.3,0.4h0l-3.8,5.2h2.2l3-4.2l3,4.2h3.2C15.8,10.6,14.2,8.8,13.9,6.6z"/>
		<path class="st1" d="M16.7,3.8c0,0.8,0.2,1.6,0.5,2.4c0.4,0.8,0.9,1.4,1.4,1.9c-0.1-0.2-0.2-0.4-0.2-0.7c-0.1-0.5-0.2-1.1-0.2-1.6
			c0-0.6,0.1-1.1,0.2-1.6s0.4-1,0.7-1.4c0.3-0.4,0.7-0.8,1.2-1s1.1-0.4,1.7-0.4c0.5,0,0.9,0.1,1.2,0.2s0.6,0.3,0.9,0.5
			c0.3,0.2,0.5,0.5,0.6,0.7c0.1,0.3,0.3,0.5,0.4,0.9h2c-0.1-0.6-0.2-1.1-0.5-1.5c-0.3-0.5-0.6-0.9-1.1-1.2s-1-0.6-1.6-0.7
			S22.7,0,22,0c-0.9,0-1.7,0.2-2.4,0.5c-0.7,0.3-1.3,0.7-1.8,1.3c-0.5,0.5-0.8,1.1-1.1,1.8C16.7,3.6,16.7,3.7,16.7,3.8z"/>
		<rect x="28.8" y="0.2" class="st1" width="1.8" height="11.1"/>
		<path class="st1" d="M40.3,10.3c-0.2,0-0.4-0.1-0.4-0.2c-0.1-0.1-0.1-0.3-0.1-0.5V5.4c0-0.4-0.1-0.8-0.3-1C39.3,4,39,3.8,38.7,3.6
			c-0.3-0.2-0.7-0.3-1.1-0.4c-0.4-0.1-0.8-0.1-1.2-0.1c-0.5,0-1,0-1.4,0.1c-0.5,0.1-0.9,0.2-1.2,0.4c-0.4,0.2-0.7,0.5-0.9,0.8
			c-0.2,0.3-0.3,0.7-0.4,1.2h1.8c0.1-0.4,0.3-0.8,0.6-1c0.4-0.2,0.8-0.3,1.4-0.3c0.2,0,0.4,0,0.6,0c0.2,0,0.4,0.1,0.6,0.2
			c0.2,0.1,0.3,0.2,0.5,0.4c0.1,0.2,0.2,0.4,0.2,0.6c0,0.3-0.1,0.5-0.2,0.7c-0.2,0.1-0.4,0.2-0.6,0.3c-0.2,0.1-0.5,0.1-0.9,0.1
			c-0.3,0-0.6,0.1-1,0.1c-0.4,0-0.8,0.1-1.2,0.2c-0.4,0.1-0.7,0.2-1.1,0.4c-0.3,0.2-0.6,0.4-0.8,0.7c-0.2,0.3-0.3,0.7-0.3,1.2
			c0,0.4,0.1,0.7,0.2,1c0.2,0.3,0.4,0.5,0.6,0.7c0.3,0.2,0.6,0.3,0.9,0.4s0.7,0.1,1.1,0.1c0.5,0,1-0.1,1.6-0.2
			c0.5-0.1,1-0.4,1.4-0.7l0.1-0.1l0,0.1c0.1,0.4,0.2,0.6,0.5,0.7c0.2,0.1,0.6,0.2,0.9,0.2c0.1,0,0.2,0,0.3,0s0.2,0,0.3,0
			c0.1,0,0.2,0,0.3-0.1c0.1,0,0.1,0,0.2-0.1v-1.1c-0.1,0-0.1,0-0.2,0L40.3,10.3L40.3,10.3z M38,8.6c0,0.3-0.1,0.6-0.2,0.8
			c-0.2,0.2-0.3,0.4-0.6,0.5c-0.2,0.1-0.5,0.2-0.7,0.3c-0.2,0.1-0.5,0.1-0.7,0.1c-0.2,0-0.4,0-0.6-0.1c-0.2,0-0.4-0.1-0.6-0.2
			c-0.2-0.1-0.3-0.2-0.5-0.4c-0.1-0.1-0.2-0.3-0.2-0.6c0-0.2,0-0.4,0.1-0.6s0.2-0.3,0.4-0.4c0.2-0.1,0.3-0.2,0.5-0.2
			c0.2-0.1,0.4-0.1,0.6-0.1c0.4-0.1,0.9-0.1,1.3-0.2c0.4,0,0.8-0.1,1-0.3L38,7.1V8.6L38,8.6z"/>
		<path class="st1" d="M46.1,3.1c-0.3,0-0.6,0-0.8,0.2c-0.3,0.1-0.5,0.2-0.8,0.4S44.1,4,43.9,4.2c-0.2,0.2-0.3,0.4-0.3,0.6l0,0.1
			h-0.1h-0.1V3.3h-1.6v8h1.8V7.5c0-0.5,0.1-0.9,0.2-1.2c0.1-0.4,0.3-0.7,0.5-0.9c0.2-0.2,0.5-0.4,0.8-0.6s0.6-0.2,1-0.2
			c0.1,0,0.3,0,0.4,0c0.1,0,0.2,0,0.3,0V3.1c-0.1,0-0.1,0-0.2,0C46.5,3.1,46.3,3.1,46.1,3.1z"/>
		<rect x="48.1" y="0.2" class="st1" width="1.8" height="1.5"/>
		<rect x="48.1" y="3.3" class="st1" width="1.8" height="8"/>
		<path class="st1" d="M54.5,0.8h-1.8v2.5h-1.5v1.2h1.5v4.9c0,0.3,0,0.6,0.1,0.9c0.1,0.2,0.2,0.5,0.3,0.6c0.2,0.2,0.4,0.3,0.7,0.4
			s0.7,0.1,1.2,0.1c0.2,0,0.4,0,0.6,0c0.2,0,0.4,0,0.5-0.1v-1.2c-0.1,0-0.2,0-0.3,0c-0.1,0-0.3,0-0.4,0c-0.2,0-0.4,0-0.5-0.1
			c-0.1-0.1-0.2-0.2-0.3-0.3s-0.1-0.2-0.1-0.4c0-0.1,0-0.3,0-0.5V4.5h1.8V3.3h-1.8V0.8z"/>
		<path class="st1" d="M63.8,3.3l-2.2,5.9h-0.1h-0.1l-2.3-5.9h-1.9l3.3,7.9l-0.2,0.8c-0.1,0.2-0.1,0.3-0.2,0.5
			c-0.1,0.1-0.2,0.3-0.3,0.4c-0.1,0.1-0.2,0.2-0.4,0.2c-0.2,0.1-0.4,0.1-0.6,0.1c-0.2,0-0.3,0-0.5,0c-0.1,0-0.2,0-0.3-0.1v1.3
			c0.4,0.1,0.8,0.1,1.2,0.1c0.5,0,0.9-0.1,1.2-0.2c0.3-0.1,0.6-0.3,0.8-0.6c0.2-0.2,0.4-0.5,0.5-0.9c0.2-0.3,0.3-0.8,0.5-1.2
			l3.4-8.3L63.8,3.3L63.8,3.3z"/>
		<path class="st1" d="M25,8.2c-0.1,0.4-0.4,0.7-0.6,1c-0.1,0.1-0.2,0.2-0.4,0.3l0,0c0,0-0.1,0.1-0.1,0.1c-0.3,0.2-0.6,0.4-0.9,0.5
			c-0.6,0.2-1.3,0.4-2,0.4c-1.2,0-2.5-0.4-3.5-1.1c0.1,0.2,0.3,0.3,0.4,0.5c0.5,0.5,1.1,0.9,1.8,1.2c0.7,0.3,1.5,0.5,2.4,0.5
			c0.7,0,1.4-0.1,2-0.3s1.1-0.5,1.6-0.9s0.8-0.9,1.1-1.4c0.2-0.5,0.4-1.1,0.5-1.7h-1.9C25.2,7.5,25.1,7.8,25,8.2z"/>
	</g>
	<path class="st2" d="M10.3,6.2l-3.8,5.2h2.2l3-4.2l3,4.2h3.2c-2.1-0.7-3.6-2.5-3.9-4.8h0h0c0-0.3-0.1-0.6-0.1-0.9
		c0-0.2,0-0.5,0-0.7c0.2-2.2,1.7-4,3.6-4.8h-2.8l-3,4.2l-3-4.2H6.5l3.8,5.2h0l0.3,0.4L10.3,6.2L10.3,6.2L10.3,6.2z"/>
	<g>
		<path class="st1" d="M67,3.5h-0.4V3.3h1v0.1h-0.4v1.1H67V3.5L67,3.5z"/>
		<path class="st1" d="M67.7,3.3H68l0.4,1l0.4-1H69v1.2h-0.2v-1l0,0l-0.4,1h-0.2l-0.4-1l0,0v1h-0.2V3.3L67.7,3.3z"/>
	</g>
	<g>
		<path class="st1" d="M9.1,17.5c-0.3-1.5-1.7-2.3-3.4-2.3c-2.9,0-4.1,2.1-4.1,4.4c0,2.5,1.2,4.6,4.1,4.6c2.1,0,3.3-1.3,3.5-3.1h1.6
			c-0.3,2.7-2.2,4.4-5.2,4.4c-3.8,0-5.6-2.5-5.6-5.7C0,16.5,2,14,5.7,14c2.5,0,4.6,1.2,5,3.5H9.1L9.1,17.5z"/>
		<path class="st1" d="M16,17c2.8,0,4.2,1.8,4.2,4.1c0,2.3-1.5,4.1-4.2,4.1c-2.8,0-4.2-1.8-4.2-4.1C11.8,18.9,13.2,17,16,17z
			 M16,24.2c1.5,0,2.7-1.1,2.7-3c0-1.9-1.2-3-2.7-3c-1.5,0-2.7,1.1-2.7,3C13.3,23.1,14.5,24.2,16,24.2z"/>
		<path class="st1" d="M22,17.2h1.4v1.2h0c0.6-1,1.6-1.4,2.8-1.4c2.3,0,3,1.2,3,2.9v5.2h-1.4v-5.3c0-1-0.7-1.6-1.8-1.6
			c-1.7,0-2.6,1-2.6,2.5v4.5h-1.4L22,17.2L22,17.2z"/>
		<path class="st1" d="M33,17.2h1.7v1.1H33v4.9c0,0.6,0.2,0.7,1.1,0.7h0.7v1.1h-1.1c-1.5,0-2.1-0.3-2.1-1.7v-5h-1.5v-1.1h1.5v-2.4
			H33L33,17.2L33,17.2z"/>
		<path class="st1" d="M36.6,17.2H38v1.7h0c0.7-1.3,1.7-1.9,3.2-1.9v1.4c-2.3,0-3.2,1.2-3.2,3.2v3.5h-1.4L36.6,17.2L36.6,17.2z"/>
		<path class="st1" d="M45.5,17c2.8,0,4.2,1.8,4.2,4.1c0,2.3-1.5,4.1-4.2,4.1c-2.8,0-4.2-1.8-4.2-4.1C41.2,18.9,42.7,17,45.5,17z
			 M45.5,24.2c1.5,0,2.7-1.1,2.7-3c0-1.9-1.2-3-2.7-3c-1.5,0-2.7,1.1-2.7,3C42.7,23.1,43.9,24.2,45.5,24.2z"/>
		<path class="st1" d="M51.5,14.2h1.4v10.9h-1.4V14.2z"/>
		<path class="st1" d="M55.2,14.2h1.4v10.9h-1.4V14.2z"/>
		<path class="st1" d="M66.4,22.6c-0.4,1.7-1.8,2.7-3.7,2.7c-2.8,0-4.1-1.7-4.2-4.1c0-2.4,1.7-4.1,4.1-4.1c3.1,0,4,2.6,4,4.5h-6.5
			c0,1.4,0.8,2.6,2.7,2.6c1.2,0,2-0.5,2.3-1.5L66.4,22.6L66.4,22.6z M65,20.4c-0.1-1.2-1.1-2.2-2.5-2.2c-1.5,0-2.4,1-2.5,2.2H65z"/>
		<path class="st1" d="M67.6,17.2h1.3v1.7h0c0.7-1.3,1.7-1.9,3.2-1.9v1.4c-2.3,0-3.2,1.2-3.2,3.2v3.5h-1.4L67.6,17.2L67.6,17.2z"/>
	</g>
</g>
</svg>
