<?xml version="1.0" encoding="utf-8"?>
<!-- Generator: Adobe Illustrator 26.2.1, SVG Export Plug-In . SVG Version: 6.00 Build 0)  -->
<svg version="1.1" id="Layer_1" xmlns="http://www.w3.org/2000/svg" xmlns:xlink="http://www.w3.org/1999/xlink" x="0px" y="0px"
	 viewBox="0 0 62.25 33.47" style="enable-background:new 0 0 62.25 33.47;" xml:space="preserve">
<style type="text/css">
	.st0{fill:#E96BAF;}
	.st1{fill:#797B7C;}
</style>
<g>
	<g>
		<path class="st0" d="M7.43,6.58c-0.04-0.29-0.07-0.59-0.07-0.9c0-0.24,0.01-0.47,0.04-0.7C7.66,2.83,9.07,1.02,11,0.19H8.2
			L5.18,4.37L2.16,0.2H0l3.81,5.16h0.01l0.32,0.42L3.83,6.21H3.82L0,11.37h2.16L5.18,7.2l3.02,4.17h3.18
			C9.29,10.64,7.76,8.83,7.43,6.58z"/>
		<path class="st1" d="M10.07,3.76c0,0.8,0.17,1.62,0.55,2.43c0.36,0.76,0.85,1.41,1.44,1.94c-0.1-0.22-0.18-0.45-0.25-0.69
			c-0.14-0.52-0.21-1.06-0.21-1.6c0-0.55,0.07-1.08,0.21-1.61c0.14-0.53,0.36-1,0.67-1.41c0.3-0.42,0.7-0.75,1.18-1
			c0.48-0.25,1.06-0.37,1.72-0.37c0.45,0,0.85,0.06,1.19,0.17c0.34,0.11,0.64,0.28,0.9,0.48c0.26,0.21,0.47,0.45,0.63,0.73
			c0.15,0.26,0.27,0.55,0.36,0.86h1.95c-0.07-0.56-0.25-1.06-0.51-1.5C19.64,1.72,19.27,1.33,18.82,1
			c-0.45-0.33-0.97-0.57-1.56-0.74C16.68,0.09,16.05,0,15.38,0c-0.89,0-1.69,0.15-2.4,0.47c-0.71,0.31-1.31,0.73-1.79,1.26
			c-0.47,0.51-0.84,1.1-1.1,1.78C10.08,3.59,10.07,3.68,10.07,3.76z"/>
		<rect x="22.1" y="0.17" class="st1" width="1.75" height="11.13"/>
		<path class="st1" d="M33.64,10.27c-0.19,0-0.36-0.05-0.44-0.18c-0.08-0.12-0.11-0.29-0.11-0.52V5.36c0-0.42-0.1-0.77-0.29-1.05
			c-0.19-0.29-0.45-0.52-0.77-0.71c-0.33-0.19-0.69-0.32-1.1-0.4c-0.41-0.08-0.83-0.12-1.25-0.12c-0.48,0-0.95,0.04-1.41,0.13
			c-0.46,0.08-0.86,0.22-1.22,0.43c-0.36,0.2-0.65,0.48-0.88,0.81c-0.21,0.31-0.34,0.71-0.39,1.18h1.75
			c0.06-0.42,0.27-0.76,0.63-0.97c0.37-0.22,0.83-0.33,1.39-0.33c0.19,0,0.4,0.01,0.62,0.04c0.22,0.03,0.43,0.08,0.62,0.17
			c0.19,0.08,0.34,0.21,0.47,0.37c0.13,0.17,0.2,0.38,0.2,0.62c0,0.28-0.08,0.5-0.24,0.65c-0.15,0.14-0.36,0.25-0.62,0.31
			c-0.25,0.06-0.54,0.11-0.86,0.14c-0.31,0.02-0.64,0.07-1,0.13c-0.4,0.04-0.81,0.1-1.21,0.18c-0.39,0.08-0.74,0.21-1.06,0.38
			c-0.31,0.17-0.56,0.41-0.75,0.71c-0.19,0.3-0.28,0.69-0.28,1.19c0,0.39,0.08,0.73,0.24,1.01s0.37,0.53,0.63,0.71
			c0.27,0.19,0.58,0.33,0.93,0.43c0.35,0.1,0.72,0.15,1.11,0.15c0.51,0,1.05-0.08,1.6-0.24c0.55-0.15,1.01-0.4,1.38-0.74l0.12-0.11
			l0.03,0.15c0.07,0.35,0.23,0.58,0.47,0.72c0.25,0.14,0.56,0.21,0.94,0.21c0.07,0,0.17-0.01,0.28-0.02
			c0.11-0.01,0.22-0.03,0.33-0.04c0.12-0.02,0.22-0.04,0.33-0.07c0.07-0.02,0.14-0.03,0.19-0.05v-1.09
			c-0.07,0.01-0.13,0.01-0.18,0.01L33.64,10.27L33.64,10.27z M31.34,8.63c0,0.3-0.07,0.56-0.24,0.77c-0.15,0.21-0.35,0.37-0.58,0.51
			c-0.23,0.13-0.47,0.22-0.73,0.28c-0.25,0.06-0.49,0.08-0.71,0.08c-0.18,0-0.37-0.02-0.58-0.05c-0.22-0.03-0.42-0.09-0.6-0.17
			c-0.19-0.08-0.35-0.2-0.48-0.35c-0.13-0.15-0.21-0.34-0.21-0.56c0-0.24,0.04-0.45,0.13-0.63c0.09-0.18,0.22-0.32,0.38-0.43
			c0.16-0.11,0.33-0.19,0.54-0.25c0.19-0.06,0.4-0.1,0.61-0.14c0.43-0.08,0.87-0.13,1.3-0.17c0.42-0.04,0.76-0.14,1.04-0.31
			l0.14-0.08L31.34,8.63L31.34,8.63z"/>
		<path class="st1" d="M39.32,3.07c-0.28,0-0.56,0.05-0.83,0.15c-0.27,0.1-0.52,0.24-0.75,0.4c-0.23,0.17-0.42,0.35-0.58,0.56
			C37,4.39,36.89,4.59,36.84,4.8l-0.01,0.06h-0.07h-0.13V3.28H35v8.01h1.75V7.49c0-0.46,0.06-0.87,0.19-1.23
			c0.13-0.36,0.3-0.66,0.53-0.91c0.22-0.24,0.49-0.43,0.79-0.56c0.3-0.13,0.62-0.19,0.96-0.19c0.14,0,0.28,0.01,0.42,0.03
			c0.1,0.01,0.21,0.03,0.31,0.04V3.1c-0.06-0.01-0.12-0.01-0.18-0.02C39.69,3.07,39.54,3.07,39.32,3.07z"/>
		<rect x="41.35" y="0.17" class="st1" width="1.75" height="1.54"/>
		<rect x="41.35" y="3.29" class="st1" width="1.75" height="8.01"/>
		<path class="st1" d="M47.76,0.84H46v2.45h-1.46v1.17H46v4.91c0.01,0.33,0.05,0.63,0.11,0.89c0.06,0.25,0.17,0.46,0.33,0.62
			c0.16,0.16,0.39,0.29,0.69,0.37s0.7,0.13,1.2,0.13c0.21,0,0.42-0.01,0.62-0.03c0.18-0.02,0.36-0.04,0.54-0.05v-1.21
			c-0.1,0.02-0.21,0.03-0.31,0.04c-0.14,0.01-0.28,0.01-0.41,0.01c-0.22,0-0.4-0.02-0.54-0.08c-0.14-0.05-0.25-0.13-0.32-0.25
			c-0.07-0.11-0.11-0.24-0.13-0.38c-0.01-0.14-0.03-0.31-0.03-0.5V4.46h1.75V3.29h-1.75V0.84z"/>
		<path class="st1" d="M57.07,3.29l-2.22,5.95h-0.07h-0.1l-2.29-5.95h-1.92l3.29,7.86l-0.23,0.78c-0.06,0.18-0.12,0.34-0.19,0.47
			c-0.07,0.14-0.16,0.26-0.26,0.37c-0.11,0.11-0.24,0.19-0.4,0.25c-0.16,0.05-0.36,0.08-0.59,0.08c-0.16,0-0.32-0.01-0.48-0.04
			c-0.11-0.02-0.23-0.04-0.35-0.05v1.31c0.41,0.05,0.83,0.08,1.25,0.08c0.5,0,0.91-0.07,1.21-0.22c0.32-0.14,0.58-0.34,0.8-0.58
			c0.21-0.25,0.4-0.53,0.55-0.85c0.15-0.33,0.3-0.8,0.47-1.16l3.36-8.29L57.07,3.29L57.07,3.29z"/>
		<path class="st1" d="M18.32,8.16c-0.15,0.37-0.36,0.69-0.64,0.97c-0.12,0.12-0.25,0.22-0.38,0.32l-0.03,0.02
			c-0.04,0.03-0.08,0.06-0.13,0.08c-0.28,0.18-0.59,0.35-0.92,0.48c-0.64,0.25-1.32,0.37-1.99,0.37c-1.24,0-2.48-0.41-3.52-1.14
			c0.13,0.17,0.26,0.33,0.41,0.49c0.5,0.53,1.1,0.95,1.82,1.25c0.71,0.3,1.53,0.46,2.44,0.46c0.74,0,1.41-0.11,2.02-0.33
			c0.61-0.22,1.14-0.52,1.59-0.92c0.45-0.4,0.81-0.87,1.07-1.42c0.25-0.53,0.41-1.1,0.46-1.73h-1.92
			C18.56,7.45,18.46,7.82,18.32,8.16z"/>
	</g>
	<path class="st0" d="M3.82,6.2L0,11.36h2.16L5.18,7.2l3.02,4.17h3.18c-2.09-0.73-3.63-2.54-3.95-4.79l0.02,0l-0.02,0
		c-0.04-0.29-0.07-0.59-0.07-0.9c0-0.24,0.01-0.47,0.04-0.7C7.66,2.83,9.07,1.02,11,0.19H8.2L5.18,4.37L2.16,0.2H0l3.81,5.16h0.01
		l0.32,0.42L3.83,6.21L3.82,6.2L3.82,6.2z"/>
	<g>
		<path class="st1" d="M60.23,3.45H59.8V3.32h1.03v0.13H60.4v1.07h-0.17L60.23,3.45L60.23,3.45z"/>
		<path class="st1" d="M60.97,3.31h0.23l0.4,1.02l0.41-1.02h0.23v1.21h-0.16V3.52h0l-0.4,1.01h-0.15l-0.4-1.01h0v1.01h-0.16
			L60.97,3.31L60.97,3.31z"/>
	</g>
	<g>
		<path class="st1" d="M2.28,14.96h2.06c1.62,0,2.71,0.54,2.71,2.13c0,1.52-1.09,2.23-2.67,2.23H3.2v2.86H2.28V14.96z M4.27,18.58
			c1.26,0,1.86-0.46,1.86-1.49c0-1.04-0.64-1.38-1.91-1.38H3.2v2.87H4.27z"/>
		<path class="st1" d="M8.43,16.84h0.75l0.08,0.97h0.03c0.37-0.68,0.92-1.11,1.52-1.11c0.24,0,0.4,0.03,0.57,0.11l-0.17,0.79
			c-0.18-0.06-0.3-0.09-0.52-0.09c-0.45,0-0.99,0.33-1.35,1.23v3.43H8.43V16.84z"/>
		<path class="st1" d="M12.18,19.52c0-1.78,1.17-2.81,2.48-2.81c1.31,0,2.48,1.03,2.48,2.81c0,1.77-1.17,2.8-2.48,2.8
			C13.34,22.32,12.18,21.29,12.18,19.52z M16.2,19.52c0-1.23-0.62-2.06-1.54-2.06c-0.92,0-1.54,0.83-1.54,2.06s0.62,2.05,1.54,2.05
			C15.57,21.56,16.2,20.74,16.2,19.52z"/>
		<path class="st1" d="M17.72,16.84h0.93l1.01,3.04c0.16,0.52,0.33,1.07,0.49,1.58h0.04c0.16-0.51,0.33-1.05,0.49-1.58l1.01-3.04
			h0.89l-1.89,5.35h-1.05L17.72,16.84z"/>
		<path class="st1" d="M23.9,15.15c0-0.36,0.27-0.58,0.62-0.58c0.35,0,0.62,0.23,0.62,0.58c0,0.34-0.27,0.58-0.62,0.58
			C24.17,15.74,23.9,15.5,23.9,15.15z M24.07,16.84h0.91v5.35h-0.91V16.84z"/>
		<path class="st1" d="M26.4,21.58l0.45-0.6c0.46,0.37,0.94,0.63,1.58,0.63c0.7,0,1.05-0.37,1.05-0.83c0-0.55-0.63-0.79-1.22-1.01
			c-0.75-0.27-1.59-0.64-1.59-1.54c0-0.86,0.69-1.52,1.84-1.52c0.67,0,1.25,0.27,1.66,0.6l-0.43,0.58
			c-0.37-0.27-0.75-0.48-1.22-0.48c-0.67,0-0.99,0.36-0.99,0.77c0,0.51,0.58,0.7,1.19,0.93c0.77,0.29,1.63,0.6,1.63,1.62
			c0,0.87-0.69,1.59-1.95,1.59C27.64,22.32,26.9,22,26.4,21.58z"/>
		<path class="st1" d="M31.44,15.15c0-0.36,0.27-0.58,0.62-0.58c0.35,0,0.62,0.23,0.62,0.58c0,0.34-0.27,0.58-0.62,0.58
			C31.71,15.74,31.44,15.5,31.44,15.15z M31.6,16.84h0.91v5.35H31.6V16.84z"/>
		<path class="st1" d="M33.91,19.52c0-1.78,1.17-2.81,2.48-2.81c1.31,0,2.48,1.03,2.48,2.81c0,1.77-1.17,2.8-2.48,2.8
			C35.08,22.32,33.91,21.29,33.91,19.52z M37.93,19.52c0-1.23-0.62-2.06-1.54-2.06s-1.54,0.83-1.54,2.06s0.62,2.05,1.54,2.05
			S37.93,20.74,37.93,19.52z"/>
		<path class="st1" d="M40.27,16.84h0.75l0.08,0.77h0.03c0.51-0.5,1.06-0.9,1.79-0.9c1.13,0,1.63,0.73,1.63,2.09v3.39h-0.9v-3.27
			c0-1-0.3-1.42-1.01-1.42c-0.55,0-0.93,0.28-1.46,0.82v3.87h-0.91V16.84z"/>
		<path class="st1" d="M46.34,15.15c0-0.36,0.27-0.58,0.62-0.58c0.35,0,0.62,0.23,0.62,0.58c0,0.34-0.27,0.58-0.62,0.58
			C46.61,15.74,46.34,15.5,46.34,15.15z M46.51,16.84h0.91v5.35h-0.91V16.84z"/>
		<path class="st1" d="M49.21,16.84h0.75l0.08,0.77h0.03c0.51-0.5,1.06-0.9,1.79-0.9c1.13,0,1.63,0.73,1.63,2.09v3.39h-0.9v-3.27
			c0-1-0.3-1.42-1.01-1.42c-0.55,0-0.93,0.28-1.46,0.82v3.87h-0.91V16.84z"/>
		<path class="st1" d="M54.82,23.21c0-0.46,0.29-0.89,0.78-1.21v-0.04c-0.27-0.17-0.48-0.46-0.48-0.88c0-0.44,0.31-0.8,0.59-0.99
			v-0.04c-0.35-0.28-0.69-0.8-0.69-1.44c0-1.17,0.92-1.9,2.01-1.9c0.29,0,0.56,0.06,0.75,0.13h1.87v0.7h-1.1
			c0.25,0.24,0.44,0.64,0.44,1.1c0,1.15-0.87,1.85-1.96,1.85c-0.26,0-0.55-0.06-0.8-0.18c-0.19,0.16-0.34,0.34-0.34,0.63
			c0,0.34,0.22,0.58,0.94,0.58h1.04c1.24,0,1.87,0.39,1.87,1.28c0,0.99-1.05,1.85-2.7,1.85C55.73,24.65,54.82,24.13,54.82,23.21z
			 M58.85,22.93c0-0.5-0.38-0.66-1.08-0.66h-0.92c-0.2,0-0.46-0.02-0.69-0.08c-0.38,0.27-0.55,0.59-0.55,0.9
			c0,0.57,0.58,0.94,1.55,0.94C58.18,24.02,58.85,23.49,58.85,22.93z M58.17,18.61c0-0.78-0.51-1.25-1.14-1.25s-1.14,0.46-1.14,1.25
			c0,0.78,0.52,1.27,1.14,1.27S58.17,19.39,58.17,18.61z"/>
	</g>
	<g>
		<path class="st1" d="M10.67,24.39h1.46l1.83,3.86c0.23,0.49,0.45,1,0.68,1.5h0.06c0.23-0.5,0.43-1.01,0.66-1.5l1.8-3.86h1.46v7.22
			h-1.13v-3.98c0-0.63,0.09-1.5,0.15-2.14h-0.06l-0.76,1.65l-1.79,3.73h-0.8l-1.8-3.73l-0.75-1.65h-0.06
			c0.06,0.64,0.15,1.51,0.15,2.14v3.98h-1.1V24.39z"/>
	</g>
	<g>
		<path class="st1" d="M19.61,30.28c0-1.09,1.04-1.63,3.39-1.86c0-0.64-0.24-1.26-1.14-1.26c-0.64,0-1.21,0.27-1.65,0.53l-0.37-0.58
			c0.51-0.3,1.28-0.65,2.17-0.65c1.35,0,1.92,0.81,1.92,2.05v3.06h-0.77l-0.08-0.6h-0.03c-0.53,0.39-1.14,0.72-1.83,0.72
			C20.3,31.7,19.61,31.18,19.61,30.28z M23,30.36v-1.38c-1.85,0.2-2.47,0.61-2.47,1.25c0,0.57,0.43,0.8,0.97,0.8
			C22.02,31.02,22.46,30.78,23,30.36z"/>
		<path class="st1" d="M25.67,26.59h0.77l0.08,0.72h0.03c0.53-0.47,1.09-0.84,1.85-0.84c1.16,0,1.69,0.68,1.69,1.95v3.16h-0.93
			v-3.05c0-0.93-0.31-1.33-1.04-1.33c-0.56,0-0.96,0.26-1.51,0.77v3.61h-0.93V26.59z"/>
		<path class="st1" d="M31.54,30.28c0-1.09,1.04-1.63,3.39-1.86c0-0.64-0.24-1.26-1.14-1.26c-0.64,0-1.21,0.27-1.65,0.53l-0.37-0.58
			c0.51-0.3,1.28-0.65,2.17-0.65c1.35,0,1.92,0.81,1.92,2.05v3.06H35.1l-0.08-0.6h-0.03c-0.53,0.39-1.14,0.72-1.83,0.72
			C32.24,31.7,31.54,31.18,31.54,30.28z M34.93,30.36v-1.38c-1.85,0.2-2.47,0.61-2.47,1.25c0,0.57,0.43,0.8,0.97,0.8
			C33.96,31.02,34.4,30.78,34.93,30.36z"/>
		<path class="st1" d="M36.87,32.22c-0.01-0.4,0.29-0.78,0.79-1.06l0-0.04c-0.28-0.15-0.5-0.4-0.51-0.76
			c-0.01-0.39,0.31-0.7,0.59-0.87l0-0.04c-0.37-0.24-0.73-0.7-0.74-1.25c-0.02-1.02,0.92-1.66,2.04-1.66c0.3,0,0.58,0.05,0.78,0.12
			h1.92l0.01,0.61h-1.13c0.26,0.21,0.46,0.56,0.47,0.96c0.02,1-0.87,1.62-1.99,1.62c-0.27,0-0.57-0.06-0.82-0.16
			c-0.2,0.14-0.35,0.3-0.34,0.55c0.01,0.3,0.24,0.51,0.98,0.51h1.07c1.28,0,1.93,0.34,1.95,1.11c0.01,0.87-1.06,1.61-2.76,1.61
			C37.82,33.47,36.88,33.02,36.87,32.22z M41.02,31.97c-0.01-0.43-0.4-0.58-1.12-0.58h-0.95c-0.21,0-0.47-0.02-0.72-0.07
			c-0.39,0.24-0.55,0.51-0.55,0.78c0.01,0.5,0.61,0.82,1.61,0.82C40.35,32.92,41.03,32.46,41.02,31.97z M40.25,28.2
			c-0.01-0.68-0.54-1.09-1.19-1.09c-0.65,0-1.16,0.41-1.15,1.09c0.01,0.68,0.55,1.11,1.19,1.11C39.74,29.31,40.26,28.88,40.25,28.2z
			"/>
		<path class="st1" d="M42.76,29.09c0-1.62,1.21-2.62,2.48-2.62c1.41,0,2.2,0.91,2.2,2.34c0,0.18-0.02,0.36-0.04,0.48h-3.72
			c0.07,1.06,0.78,1.74,1.83,1.74c0.53,0,0.96-0.15,1.37-0.4l0.33,0.55c-0.48,0.29-1.07,0.52-1.82,0.52
			C43.93,31.7,42.76,30.73,42.76,29.09z M46.62,28.68c0-1-0.5-1.54-1.36-1.54c-0.78,0-1.47,0.56-1.58,1.54H46.62z"/>
		<path class="st1" d="M48.81,26.59h0.77l0.08,0.91h0.03c0.38-0.63,0.95-1.03,1.57-1.03c0.24,0,0.42,0.03,0.59,0.1l-0.17,0.74
			c-0.19-0.05-0.31-0.08-0.54-0.08c-0.47,0-1.02,0.3-1.4,1.15v3.2h-0.93V26.59z"/>
	</g>
</g>
</svg>
