<?xml version="1.0" encoding="utf-8"?>
<!-- Generator: Adobe Illustrator 26.2.1, SVG Export Plug-In . SVG Version: 6.00 Build 0)  -->
<svg version="1.1" id="Layer_1" xmlns="http://www.w3.org/2000/svg" xmlns:xlink="http://www.w3.org/1999/xlink" x="0px" y="0px"
	 viewBox="0 0 130 63" style="enable-background:new 0 0 130 63;" xml:space="preserve">
<g>
	<g id="XMLID_112_">
		<g id="XMLID_116_">
			<path id="XMLID_259_" d="M24.1,22.8h-5.7l-1.7-4.2H7.2l-1.6,4.2H0L8.5,1.6h6.1L24.1,22.8z M11.7,6.7l-3.1,8.2h6.5L11.7,6.7z"/>
			<path id="XMLID_257_" d="M44.7,1.6h4.6v21.2h-5.3V9.6l-5.7,6.6h-0.8l-5.7-6.6v13.2h-5.3V1.6h4.6l6.8,7.9L44.7,1.6z"/>
			<path id="XMLID_117_" d="M62.7,1.6c7.7,0,11.7,4.8,11.7,10.6c0,6.1-3.9,10.6-12.3,10.6h-8.8V1.6H62.7z M58.7,19h3.4
				c5.3,0,6.9-3.6,6.9-6.7c0-3.6-2-6.7-7-6.7h-3.4V19z"/>
		</g>
		<g id="XMLID_113_">
			<polygon id="XMLID_115_" points="95.9,6.7 85,6.7 78.3,0 102.5,0 102.5,24.3 95.9,17.6 			"/>
			<polygon id="XMLID_114_" points="84.9,17.6 84.9,8 78.1,14.9 78.1,24.5 87.7,24.5 94.5,17.6 			"/>
		</g>
	</g>
	<g id="XMLID_389_">
		<g id="XMLID_411_">
			<rect id="XMLID_414_" y="35.4" width="27.6" height="5.5"/>
			<g id="XMLID_412_">
				<polygon id="XMLID_413_" points="0,46.4 0,63 27.6,63 27.6,57.5 5.5,57.5 5.5,51.9 27.6,51.9 27.6,46.4 				"/>
			</g>
		</g>
		<polygon id="XMLID_393_" points="82.6,46.3 74.8,35.4 67.9,35.4 79.9,51.9 79.9,63 85.4,63 85.4,51.9 97.4,35.4 90.5,35.4 		"/>
		<path id="XMLID_390_" d="M102.4,57.4c0,3,2.5,5.5,5.5,5.5H130v-5.5h-21.7c-0.2,0-0.4-0.2-0.4-0.4V41.3c0-0.2,0.2-0.4,0.4-0.4H130
			v-5.5h-22.1c-3,0-5.5,2.5-5.5,5.5V57.4z"/>
		<path d="M58.3,35.4H36.2v5.5h21.7c0.2,0,0.4,0.2,0.4,0.4V46c0,0.2-0.2,0.4-0.4,0.4H36.2V63h5.5v-11h16.5c3,0,5.5-2.5,5.5-5.5v-5.5
			C63.8,37.9,61.3,35.4,58.3,35.4z"/>
	</g>
</g>
</svg>
