<?xml version="1.0" encoding="utf-8"?>
<!-- Generator: Adobe Illustrator 15.0.0, SVG Export Plug-In . SVG Version: 6.00 Build 0)  -->
<!DOCTYPE svg PUBLIC "-//W3C//DTD SVG 1.1//EN" "http://www.w3.org/Graphics/SVG/1.1/DTD/svg11.dtd">
<svg version="1.1" id="Layer_1" xmlns="http://www.w3.org/2000/svg" xmlns:xlink="http://www.w3.org/1999/xlink" x="0px" y="0px"
	 width="1365.6px" height="4096px" viewBox="0 0 1365.6 4096" style="enable-background:new 0 0 1365.6 4096;" xml:space="preserve"
	>
<style type="text/css">
<![CDATA[
	.st0{fill:#E2231A;}
	.st1{fill:#FFFFFF;}
]]>
</style>
<g>
	<rect class="st0" width="1365.6" height="4096"/>
	<g>
		<path class="st1" d="M459.8,2311.6c0,60.2,28.3,129.5,83.9,171.5l0,0l0,0H468v144.1h526.4v-144.1H695.2
			c-53.8,0-111.3-42-111.3-118.6c0-59.3,42-121.3,111.3-121.3h299.2v-145H668.7C548.2,2098.2,459.8,2184.8,459.8,2311.6"/>
		<polygon class="st1" points="468.9,1072.8 826.5,1203.3 468.9,1333.7 468.9,1497.9 994.3,1281.7 994.3,1123.9 468.9,907.7 		"/>
		<path class="st1" d="M832.9,2780.5c44.7,61.1,55.6,95.8,55.6,150.5c0,50.2-15.5,88.5-42.9,116.8l-152.3-368.5
			c-57.5,8.2-107.6,30.1-146.9,62.9c-56.6,48.3-85.8,120.4-85.8,207.1c0,158.7,116.8,278.2,271.9,278.2
			c158.7,0,271.9-119.5,271.9-293.7c0-97.6-46.5-197-100.3-244.5L832.9,2780.5z M627.6,3057.9c-32.8-24.6-52-63.9-52-111.3
			c0-52,30.1-91.2,73.9-112.2l104.9,251.8C699.7,3094.4,657.7,3080.7,627.6,3057.9z"/>
		<polygon class="st1" points="862.1,3241.2 862.1,3569.6 312,3569.6 312,3715.6 994.3,3715.6 994.3,3241.2 		"/>
		<path class="st1" d="M1003.5,648.6c0,157.8-117.7,281-271.9,281c-152.3,0-271.8-124.1-271.8-283.7c0-156.9,117.7-281,271.8-281
			C884,364.9,1003.5,489.9,1003.5,648.6 M583.8,648.6c0,80.3,61.1,138.7,147.8,138.7c83,0,147.8-62,147.8-141.4
			c0-80.3-62.9-138.7-147.8-138.7C648.6,507.2,583.8,569.2,583.8,648.6"/>
		<path class="st1" d="M1003.5,1759.7c0,157.8-117.7,281-271.9,281c-152.3,0-271.8-124.1-271.8-283.7c0-157.8,117.7-281,271.8-281
			C884,1476,1003.5,1601,1003.5,1759.7 M583.8,1759.7c0,80.3,61.1,138.7,147.8,138.7c83,0,147.8-62,147.8-141.4
			c0-80.3-62.9-138.7-147.8-138.7C648.6,1618.3,583.8,1680.4,583.8,1759.7"/>
	</g>
</g>
</svg>
