<svg xmlns="http://www.w3.org/2000/svg" viewBox="0 0 107.84 67.34" xmlns:v="https://vecta.io/nano"><path d="M30.48 15.31c-1.19 0-2.21.47-2.86 1.33-.38.51-.8 1.39-.8 2.56l.02.49.01.13 6.49-2.63-.05-.11c-.58-1.09-1.6-1.77-2.81-1.77zm60.59.1c-2.21 0-3.75 1.63-3.76 3.94 0 2.2 1.67 3.94 3.81 3.94 2.17 0 3.75-1.67 3.76-3.94-.01-2.21-1.68-3.94-3.81-3.94zM0 0v34.66h107.84V0H0zm79.65 12.41v.1-.1zM22.46 26.18H10.23V8.2h3.95v14.46h.1 8.18v3.52zm5.59-3.76c.72.61 1.68.92 2.83.92 1.51 0 2.42-.33 3.92-1.43l.03-.03 2.48 1.87-.04.05c-1.31 1.5-4.04 2.61-6.44 2.61-4.59-.01-7.76-2.9-7.77-7.07 0-4.03 3.15-7.07 7.35-7.07 2.31 0 4.2.77 5.48 2.24.87 1 1.45 2.32 1.67 3.82l.01.04-9.63 3.93.11.12zm24.9 3.76h-3.9v-8.03c0-1.76-1.6-2.8-3.12-2.81-1.98 0-3.05 1.44-3.06 2.81v8.03h-3.9V12.51h3.9v1.82l.17-.19c1.05-1.16 2.64-1.86 4.26-1.86 3.34 0 5.65 2.23 5.65 5.44v8.46h0zm8.81.23c-4.17 0-7.43-3.1-7.43-7.06s3.28-7.07 7.48-7.07h0c4.17 0 7.43 3.1 7.43 7.07 0 3.96-3.28 7.06-7.48 7.06zm12.54-.23l-5.71-13.67h4.45l3.38 9.13 3.38-9.13h4.45l-5.71 13.67H74.3zm16.77.23c-4.17 0-7.43-3.1-7.43-7.06s3.28-7.07 7.48-7.07h0c4.17 0 7.43 3.1 7.43 7.07 0 3.96-3.28 7.06-7.48 7.06zm-29.31-11c-2.21 0-3.75 1.63-3.76 3.94 0 2.2 1.67 3.94 3.81 3.94 2.17 0 3.76-1.67 3.76-3.94 0-2.21-1.67-3.94-3.81-3.94z" fill="#3e8ddc"/><path d="M47.3 12.28c-1.61 0-3.21.7-4.26 1.86l-.17.19v-1.82h-3.9v13.68h3.9v-8.03c0-1.37 1.08-2.8 3.06-2.81 1.53 0 3.12 1.04 3.12 2.81v8.03h3.9v-8.46c-.01-3.22-2.31-5.44-5.65-5.45zm32.49.23l-3.38 9.13-3.38-9.13h-4.45l5.72 13.67h4.22l5.71-13.67zm-42.23 5.83c-.21-1.5-.79-2.81-1.67-3.82-1.28-1.47-3.17-2.24-5.48-2.24-4.2 0-7.35 3.04-7.35 7.07 0 4.16 3.18 7.06 7.77 7.07 2.4 0 5.13-1.11 6.44-2.61l.04-.05-2.48-1.87-.03.03c-1.5 1.1-2.41 1.43-3.92 1.42-1.15 0-2.1-.3-2.83-.92l-.12-.1 9.63-3.93v-.05zm-10.71 1.47l-.01-.13c-.02-.17-.02-.33-.02-.49 0-1.17.42-2.05.8-2.56.65-.86 1.67-1.33 2.86-1.33 1.21 0 2.23.68 2.8 1.77l.05.11-6.48 2.63zm-12.67 2.84V8.2h-3.95v17.98h12.23v-3.53h-8.18zm47.63-10.37h0c-4.2 0-7.48 3.1-7.48 7.06s3.26 7.06 7.43 7.07c4.2 0 7.48-3.11 7.48-7.07s-3.26-7.06-7.43-7.06zm0 11.01c-2.14 0-3.81-1.74-3.81-3.94 0-2.3 1.55-3.93 3.76-3.94 2.14 0 3.81 1.74 3.81 3.94 0 2.27-1.58 3.93-3.76 3.94zm29.31-11.01h0c-4.2 0-7.48 3.1-7.48 7.06s3.26 7.06 7.43 7.07c4.2 0 7.48-3.11 7.48-7.07s-3.26-7.06-7.43-7.06zm0 11.01c-2.14 0-3.81-1.74-3.81-3.94 0-2.3 1.55-3.93 3.76-3.94 2.14 0 3.81 1.74 3.81 3.94-.01 2.27-1.59 3.93-3.76 3.94z" fill="#fff"/><path d="M21.36 51.39a9.68 9.68 0 0 1-.1-1.33c0-.35.02-.69.06-1.03.35-3.18 2.3-5.85 4.99-7.07h-3.89l-4.2 6.16-4.2-6.16h-3l5.3 7.63h.02l.44.62-.44.63h-.02l-5.3 7.63h3l4.2-6.16 4.2 6.16h4.42c-2.9-1.08-5.03-3.76-5.48-7.08z" fill="#ff6a00"/><path d="M107.84,67.34H0V34.59h107.84V67.34z" fill="#eeeee9"/><path d="M98.4 24.12h-.6v-.2h1.43v.2h-.6v1.59h-.23v-1.59zm1.03-.2h.32l.56 1.5.57-1.5h.33v1.79h-.23v-1.49h0l-.56 1.49h-.2l-.56-1.49h-.01v1.49h-.22v-1.79z" fill="#fff"/><path d="M16.33 50.84l-5.3 7.63h3l4.2-6.16 4.2 6.16h4.42c-2.91-1.07-5.04-3.75-5.49-7.08l.03-.01-.03.01a9.68 9.68 0 0 1-.1-1.33c0-.35.02-.69.06-1.03.35-3.18 2.3-5.85 4.99-7.07h-3.89l-4.2 6.16-4.2-6.16h-3l5.3 7.63h.02l.44.62-.44.63h-.01 0z" fill="#3e8ddc"/><path d="M25.31 47.1a8.87 8.87 0 0 0 .76 3.58 8.96 8.96 0 0 0 2 2.87 6.78 6.78 0 0 1-.34-1.02 9.39 9.39 0 0 1-.3-2.37 9.39 9.39 0 0 1 .3-2.37c.2-.78.51-1.47.93-2.09s.97-1.11 1.64-1.48 1.47-.55 2.38-.55c.63 0 1.18.08 1.66.25a4.03 4.03 0 0 1 1.25.71c.36.3.65.67.88 1.09.21.39.38.81.5 1.27h2.71a6.03 6.03 0 0 0-.7-2.22c-.38-.69-.89-1.27-1.51-1.75-.63-.48-1.34-.85-2.16-1.1a8.99 8.99 0 0 0-2.63-.38c-1.24 0-2.35.23-3.33.69s-1.81 1.08-2.49 1.86c-.66.75-1.17 1.63-1.53 2.64l-.02.37zm16.57-5.17h2.43v16.44h-2.43zm15.77 14.92c-.27 0-.49-.08-.61-.27-.11-.18-.15-.43-.15-.77v-6.22c0-.62-.14-1.14-.41-1.56-.27-.43-.63-.77-1.08-1.05-.45-.27-.96-.47-1.53-.59s-1.15-.18-1.74-.18c-.67 0-1.32.06-1.96.19-.64.12-1.2.33-1.7.64-.49.3-.9.7-1.22 1.2-.29.46-.48 1.04-.54 1.75h2.44c.09-.63.38-1.12.87-1.43.51-.33 1.16-.49 1.93-.49a6.82 6.82 0 0 1 .87.06c.31.04.6.12.86.25a1.7 1.7 0 0 1 .65.54c.18.24.28.56.28.92 0 .41-.11.74-.33.96-.21.21-.5.37-.86.47-.35.09-.74.16-1.19.2a10.68 10.68 0 0 0-1.38.2l-1.68.26a4.63 4.63 0 0 0-1.47.56c-.43.25-.78.6-1.04 1.05-.26.44-.4 1.03-.4 1.76 0 .58.11 1.07.33 1.5s.51.78.88 1.05a4.1 4.1 0 0 0 1.29.64 5.62 5.62 0 0 0 1.54.22c.71 0 1.45-.12 2.22-.35.76-.23 1.4-.59 1.92-1.09l.16-.16.05.23c.11.52.32.87.65 1.06.34.21.77.31 1.31.31a3.28 3.28 0 0 0 .39-.03l.46-.07.46-.1.27-.08v-1.6l-.25.02h-.29 0zm-3.2-2.41c0 .44-.11.82-.33 1.14-.21.3-.48.55-.8.75-.32.19-.66.33-1.02.41a4.52 4.52 0 0 1-.99.12 4.84 4.84 0 0 1-.81-.07 3.1 3.1 0 0 1-.83-.26 1.96 1.96 0 0 1-.67-.51 1.27 1.27 0 0 1-.29-.83c0-.36.06-.67.19-.93s.3-.47.52-.63.46-.28.74-.37c.27-.09.56-.15.84-.2l1.8-.25c.58-.05 1.06-.21 1.45-.46l.2-.13v2.22zm11.22-8.23a3.14 3.14 0 0 0-1.16.22c-.38.15-.72.35-1.04.6a4.47 4.47 0 0 0-.8.83c-.22.3-.37.61-.44.91l-.02.1h-.1-.18v-2.34h-2.27v11.84h2.43v-5.63c0-.68.08-1.29.26-1.82a4.1 4.1 0 0 1 .73-1.34 3.23 3.23 0 0 1 1.09-.83c.41-.19.87-.28 1.34-.28a3.99 3.99 0 0 1 .59.04l.44.06v-2.31l-.25-.03a6.98 6.98 0 0 0-.62-.02zm2.83-4.28h2.44v2.27H68.5zm0 4.61h2.44v11.84H68.5zm8.91-3.63h-2.44v3.63h-2.03v1.74h2.03v7.25c.02.5.07.93.15 1.31a1.92 1.92 0 0 0 .46.91c.22.24.54.43.96.55.42.13.98.19 1.67.19.29 0 .58-.01.86-.05l.76-.08v-1.79a2.1 2.1 0 0 1-.43.05l-.57.01c-.3 0-.56-.04-.75-.11-.19-.08-.35-.2-.45-.37-.1-.16-.16-.35-.18-.57l-.04-.74v-6.58h2.43v-1.74h-2.43v-3.61zm12.93 3.63l-3.09 9.03h-.09-.14l-3.18-9.03h-2.67l4.58 11.91-.32 1.18a4.95 4.95 0 0 1-.27.72c-.1.21-.22.4-.36.56-.15.17-.34.29-.56.37-.23.08-.5.13-.83.13a3.52 3.52 0 0 1-.66-.06l-.48-.08v1.99c.57.08 1.15.12 1.74.12.69 0 1.26-.11 1.69-.33a3.27 3.27 0 0 0 1.1-.87c.3-.38.55-.8.76-1.29l.65-1.76 4.67-12.57h-2.54v-.02zM36.63 53.9c-.21.54-.51 1.02-.88 1.43a4.6 4.6 0 0 1-.52.47l-.04.03c-.06.05-.12.08-.17.12-.39.27-.81.52-1.28.71a7.19 7.19 0 0 1-2.76.55c-1.72 0-3.44-.6-4.89-1.69.17.25.36.5.57.72a7.37 7.37 0 0 0 2.53 1.85c.99.45 2.12.68 3.39.68 1.03 0 1.96-.16 2.81-.48s1.58-.77 2.21-1.36c.62-.59 1.12-1.29 1.49-2.1a7.59 7.59 0 0 0 .64-2.56h-2.67c-.1.57-.23 1.12-.43 1.63zm58.1-7.12h-.6v-.2h1.43v.2h-.6v1.59h-.24v-1.59zm1.04-.2h.33l.56 1.5.57-1.5h.33v1.79h-.23v-1.49h0l-.56 1.49h-.2L96 46.88h0v1.49h-.23v-1.79z" fill="#67686b"/><defs ><path  d="M61.77-71.65c.02.07.01.13-.03.19-.05.1-.11.06-.17.13a.64.64 0 0 0-.08.36c-.17.06-.01.23-.02.35 0 .05-.04.11-.04.16-.01.12.02.27.07.37a1.66 1.66 0 0 0 .44.54c.19.15.36.57.61.63.18.04.38-.1.54-.14.18-.04.4.01.57-.05.22-.08.13-.34.29-.45.1-.07.29-.01.41-.05.2-.07.34-.26.38-.46.02-.08.01-.14.04-.22.04-.1.11-.16.09-.29-.01-.06-.05-.12-.06-.19-.02-.11 0-.22 0-.34 0-.2.02-.38-.08-.55-.38-.69-1.24-.93-1.97-.79-.18.03-.29.13-.44.21-.17.09-.14.17-.32.22-.08.03-.22.12-.21.22 0 .12 0 .05.01.17-.02.01-.02 0-.03-.03"/><path  d="M23.44-71.65c.02.07.01.13-.03.19-.05.1-.11.06-.17.13a.64.64 0 0 0-.08.36c-.17.06-.01.23-.02.35 0 .05-.04.11-.04.16-.01.12.02.27.07.37a1.77 1.77 0 0 0 .43.54c.19.15.36.57.61.63.18.04.38-.1.54-.14.18-.04.4.01.57-.05.22-.08.13-.34.29-.45.1-.07.29-.01.41-.05.2-.07.34-.26.38-.46.02-.08.01-.14.04-.22.04-.1.11-.16.09-.29-.01-.06-.05-.12-.06-.19-.02-.11 0-.22 0-.34 0-.2.02-.38-.08-.55-.38-.69-1.24-.93-1.97-.79-.18.03-.29.13-.44.21-.17.09-.14.17-.32.22-.08.03-.22.12-.21.22 0 .12 0 .05.01.17-.02.01-.02 0-.03-.03"/><path  d="M46.46-64c.02.07.01.13-.03.19-.05.1-.11.06-.16.13a.64.64 0 0 0-.08.36c-.17.06-.01.23-.02.35 0 .05-.04.11-.05.16-.01.12.02.27.07.37a1.66 1.66 0 0 0 .44.54c.19.15.36.57.61.63.18.04.38-.1.54-.14.18-.04.4.01.57-.05.22-.08.13-.34.29-.45.1-.07.29-.01.41-.05.2-.07.34-.26.38-.46.02-.08.01-.14.04-.22.04-.1.11-.16.09-.29-.01-.06-.05-.12-.06-.19-.02-.11 0-.22 0-.34 0-.2.02-.38-.08-.55-.38-.69-1.24-.93-1.97-.79-.18.03-.29.13-.44.21-.17.09-.14.17-.32.22-.08.03-.22.12-.21.22 0 .12 0 .05.01.17-.02.01-.02 0-.03-.03"/><path  d="M69.44-25.74c.02.07.01.13-.03.19-.05.1-.11.06-.17.13a.64.64 0 0 0-.08.36c-.16.06 0 .23-.01.35 0 .05-.04.11-.04.16-.01.12.02.27.07.37a1.77 1.77 0 0 0 .43.54c.19.15.36.57.61.63.18.04.38-.1.54-.14.18-.04.4.01.57-.05.22-.08.13-.34.29-.45.1-.07.29-.01.41-.05.2-.07.34-.26.38-.46.02-.08.01-.14.04-.22.04-.1.11-.16.09-.29-.01-.06-.05-.12-.06-.19-.02-.11 0-.22 0-.34 0-.2.02-.38-.08-.55-.38-.69-1.24-.93-1.97-.79-.18.03-.29.13-.44.21-.17.09-.14.17-.32.22-.08.03-.22.12-.21.22 0 .12 0 .05.01.17-.02.01-.02 0-.03-.03"/><path  d="M8.16-25.74c.02.07.01.13-.03.19-.05.1-.11.06-.17.13a.64.64 0 0 0-.08.36c-.16.06 0 .23-.01.35 0 .05-.04.11-.04.16-.01.12.02.27.07.37a1.66 1.66 0 0 0 .44.54c.19.15.36.57.61.63.18.04.38-.1.54-.14.18-.04.4.01.57-.05.22-.08.13-.34.29-.45.1-.07.29-.01.41-.05.2-.07.34-.26.38-.46.02-.08.01-.14.04-.22.04-.1.11-.16.09-.29-.01-.06-.05-.12-.06-.19-.02-.11 0-.22 0-.34 0-.2.02-.38-.08-.55-.38-.69-1.24-.93-1.97-.79-.18.03-.29.13-.44.21-.17.09-.14.17-.32.22-.08.03-.22.12-.21.22 0 .12 0 .05.01.17-.02.01-.02 0-.03-.03"/><path  d="M54.12-10.43c.02.07.01.13-.03.19-.05.1-.11.06-.17.13a.64.64 0 0 0-.08.36c-.17.06-.01.23-.02.35 0 .05-.04.11-.04.16-.01.12.02.27.07.37a1.66 1.66 0 0 0 .44.54c.19.15.36.57.61.63.18.04.38-.1.54-.14.18-.04.4.01.57-.05.22-.08.13-.34.29-.45.1-.07.29-.01.41-.05.2-.07.34-.26.38-.46.01-.08 0-.15.03-.22.04-.1.11-.16.09-.29-.01-.06-.05-.12-.06-.19-.02-.11 0-.22 0-.34 0-.2.02-.38-.08-.55-.38-.69-1.24-.93-1.97-.79-.18.03-.29.13-.44.21-.17.09-.14.17-.32.22-.08.03-.22.12-.21.22 0 .12 0 .05.01.17-.02.01-.02 0-.03-.03"/></defs></svg>