<?xml version="1.0" encoding="utf-8"?>
<!-- Generator: Adobe Illustrator 22.1.0, SVG Export Plug-In . SVG Version: 6.00 Build 0)  -->
<svg version="1.1" id="Layer_1" xmlns="http://www.w3.org/2000/svg" xmlns:xlink="http://www.w3.org/1999/xlink" x="0px" y="0px"
	 viewBox="0 0 500 500" style="enable-background:new 0 0 500 500;" xml:space="preserve">
<style type="text/css">
	.st0{opacity:0.5;}
	.st1{fill:#FFFFFF;}
</style>
<rect class="st0" width="500" height="500"/>
<path class="st1" d="M98.5,180l43.5,25c-11,18.5-17,40-17,62.5c0,69,56,125,125,125s125-56,125-125c0-66.5-52-121-117.5-125
	c0,5,0,10,0,15V171c0,11-8,15.5-17.5,10l-27-15.5c-9.5-5.5-25-14.5-34.5-20l-27-15.5c-9.5-5.5-9.5-14.5,0-20l27-15.5
	c9.5-5.5,25-14.5,34.5-20l27-15c9.5-5.5,17.5-1.5,17.5,9c0,7,0,16,0,24c93,4,167.5,81,167.5,175c0,96.5-78.5,175-175,175
	S75,364,75,267.5C75,235.5,83.5,206,98.5,180z"/>
</svg>
