<?xml version="1.0" encoding="UTF-8"?>
<!DOCTYPE svg  PUBLIC '-//W3C//DTD SVG 1.1//EN'  'http://www.w3.org/Graphics/SVG/1.1/DTD/svg11.dtd'>
<svg enable-background="new 0 0 309 87" version="1.1" viewBox="0 0 309 87" xml:space="preserve" xmlns="http://www.w3.org/2000/svg">
<style type="text/css">
<![CDATA[
	.st0{fill:#E12727;}
	.st1{display:inline;fill:#FFFFFF;}
	.st2{fill:#FFFFFF;}
	.st3{display:none;}
	.st4{fill:#FFFFFF;fill-opacity:0;}
]]>
</style>
			<polygon class="st2" points="1.1 1.8 1.1 10.5 10.5 10.5 10.5 70.8 19.8 70.8 19.8 10.5 29.1 10.5 29.1 1.8"/>
				<path class="st0" d="m70.1 6.3c0 3.2-2.6 5.7-5.8 5.7s-5.8-2.6-5.8-5.7c0-3.2 2.6-5.7 5.8-5.7s5.8 2.6 5.8 5.7"/>
				<path class="st2" d="m40.7 18.8h0.4c1.4-3 4.2-4 6.7-4 6.1 0 7.1 3.1 7.1 8.9v47.1h-8.7v-45.2c0-1.8-0.7-3.3-2.7-3.3-2.3 0-2.9 1.8-2.9 3.2v45.3h-8.7v-69.1h8.8v17.1z"/>
				<rect class="st2" x="60" y="15.5" width="8.9" height="55.4"/>
				<path class="st2" d="m73.9 15.6h8.8v3.3h0.4c1.2-2.5 4-3.9 6.7-3.9 7.2 0 7.1 4 7.1 9.8v46.2h-8.7v-44.9c0-2-0.6-3.6-2.6-3.6-2.7 0-3.1 2.5-3.1 3.6v44.9h-8.6v-55.4z"/>
				<polygon class="st2" points="102 71 102 1.8 110.6 1.8 110.6 41.1 111.5 41.1 116.6 15.6 125.3 15.6 119.9 40.6 125.8 71 116.7 71 111.5 41.8 110.6 41.8 110.6 71"/>
				<path class="st2" d="m141.8 51.7c0-1.8-0.9-4-1.9-5.6l-9.7-15.3c-1.8-2.8-2.9-5.6-3-8.9 0-1.8 0.1-5.1 0-9.6 0-6.5 5-11.5 11.8-11.5 7.6 0 12.3 5.1 12.4 13.5v9.5h-10.3v-13c0-1-0.9-1.8-1.8-1.8-1.2 0-2 0.7-2 1.7v10.2c0 1.5 0.7 3.6 1.5 4.8 2.6 4.1 9 13.8 11.1 17.4 1.6 2.6 2 5.7 2.1 9v9.1c0 6.2-5.1 11.3-12 11.3-7.1 0-12.1-5.2-12.1-12.6v-13.2h10.2v14.9c0 2 0.6 2.6 1.8 2.6 1.3 0 2-0.6 2-2.6v-9.9h-0.1z"/>
				<path class="st2" d="m153.3 15.6h9.3l1.9 18.4c1 8.7 1.3 17.4 1.6 24.8h0.4c0.5-6.8 0.5-15.8 1.5-22.8l2.2-20.3h9.3l-8.3 58.6c-1.2 8.2-2.4 9.1-10.4 9.1-2.2 0-4-0.1-5.8-0.1v-7.3h2.8c2.8 0 3.3-1.4 3.3-3.3 0-2.8-1.3-8.1-1.6-11.3l-6.2-45.8z"/>
				<path class="st2" d="m189.9 49.4v12.1c0 2.9 1.1 3.4 2.3 3.4s2.2-0.5 2.2-3.4v-5.7c0-8.9-13.9-15.3-13.9-24.1v-7.5c0-5.7 4.5-9.3 11.6-9.3s11.6 3.6 11.6 9.3v11.4h-9.4v-10.5c0-2.9-1.1-3.4-2.2-3.4-1.2 0-2.3 0.5-2.3 3.4v4.6c0 5.6 13.9 13.3 13.9 21.5v11.2c0 5.7-4.5 9.3-11.6 9.3s-11.6-3.6-11.6-9.3v-13h9.4z"/>
				<path class="st2" d="m218.5 15.6h4.3v7.4h-4.3v36.2c0 4.2 1.1 4.5 2.1 4.5h1v7.3h-5.4c-5.8 0-7-5.2-7-7.4v-40.6h-4v-7.4h4v-10h9.4l-0.1 10z"/>
				<path class="st2" d="m247.7 49.2v13.2c0 5.7-4.5 9.3-11.6 9.3s-11.6-3.6-11.6-9.3v-38.1c0-5.7 4.5-9.3 11.6-9.3s11.6 3.6 11.6 9.3v20.3h-13.9v17.6c0 2.5 0.9 2.7 2.2 2.7 1.4 0 2.3-0.2 2.3-2.7v-13h9.4zm-9.3-24.8c0-2.5-0.9-2.7-2.3-2.7s-2.2 0.2-2.2 2.7v13.6h4.5v-13.6z"/>
				<path class="st2" d="m260.9 19.3h0.2c1.4-2.3 3.5-4.4 6.5-4.4 3.3 0 5 1.2 6.6 4 1.5-2.9 3.2-4 6.7-4 7.1 0 7.2 4.2 7.2 10v46.1h-9.4v-44.7c0-1.5-0.1-3.4-2.2-3.4-2 0-2 1.8-2 3.4v44.7h-9.4v-44.7c0-1.5-0.1-3.4-2.2-3.4-2 0-2.1 1.8-2.1 3.4v44.7h-9.4v-55.4h9.4v3.7h0.1z"/>
		<polygon class="st4" points="1.6 0.7 1.6 0.7"/>
		<polygon class="st4" points="288.7 83.5 288.7 83.5"/>
<g class="st3">
	<polygon class="st1" points="297.4 1.3 297.4 3.1 295.1 3.1 295.1 11.8 293 11.8 293 3.1 290.8 3.1 290.8 1.3"/>
	<polygon class="st1" points="299.9 11.8 299.9 1.3 302.7 1.3 304.4 8.2 304.4 8.2 306.2 1.3 309 1.3 309 11.8 307.2 11.8 307.2 3.6 307.2 3.6 305.2 11.8 303.7 11.8 301.7 3.6 301.7 3.6 301.7 11.8"/>
</g>
</svg>
