<?xml version="1.0" encoding="utf-8"?>
<!-- Generator: Adobe Illustrator 26.2.1, SVG Export Plug-In . SVG Version: 6.00 Build 0)  -->
<svg version="1.1" id="Layer_1" xmlns="http://www.w3.org/2000/svg" xmlns:xlink="http://www.w3.org/1999/xlink" x="0px" y="0px"
	 viewBox="0 0 19 19" style="enable-background:new 0 0 19 19;" xml:space="preserve">
<style type="text/css">
	.st0{fill:#F04187;}
</style>
<g>
	<circle class="st0" cx="9.5" cy="9.5" r="9.47"/>
	<g>
		<path d="M6.94,11.25l0.92-0.12c0.11,0.52,0.29,0.9,0.54,1.13c0.25,0.23,0.57,0.35,0.93,0.35c0.43,0,0.8-0.15,1.1-0.45
			c0.3-0.3,0.45-0.67,0.45-1.12c0-0.42-0.14-0.77-0.42-1.05c-0.28-0.27-0.63-0.41-1.06-0.41c-0.17,0-0.39,0.03-0.65,0.1l0.1-0.81
			c0.06,0.01,0.11,0.01,0.15,0.01c0.39,0,0.75-0.1,1.06-0.31s0.47-0.52,0.47-0.95c0-0.34-0.11-0.62-0.34-0.84
			C9.97,6.56,9.67,6.44,9.31,6.44c-0.36,0-0.66,0.11-0.9,0.34C8.18,7.01,8.02,7.35,7.95,7.8L7.03,7.63C7.14,7.01,7.4,6.54,7.8,6.2
			c0.4-0.34,0.9-0.51,1.49-0.51c0.41,0,0.79,0.09,1.13,0.26c0.34,0.18,0.61,0.42,0.79,0.72c0.18,0.3,0.27,0.63,0.27,0.97
			c0,0.33-0.09,0.62-0.26,0.89C11.06,8.79,10.8,9,10.46,9.16c0.44,0.1,0.79,0.32,1.04,0.64c0.25,0.32,0.37,0.73,0.37,1.21
			c0,0.66-0.24,1.21-0.72,1.67s-1.08,0.68-1.81,0.68c-0.66,0-1.21-0.2-1.64-0.59C7.25,12.38,7,11.87,6.94,11.25z"/>
	</g>
</g>
</svg>
