<?xml version="1.0" encoding="utf-8"?>
<!-- Generator: Adobe Illustrator 26.2.1, SVG Export Plug-In . SVG Version: 6.00 Build 0)  -->
<svg version="1.1" id="Layer_1" xmlns="http://www.w3.org/2000/svg" xmlns:xlink="http://www.w3.org/1999/xlink" x="0px" y="0px"
	 viewBox="0 0 19 19" style="enable-background:new 0 0 19 19;" xml:space="preserve">
<style type="text/css">
	.st0{fill:#F04187;}
</style>
<g>
	<circle class="st0" cx="9.5" cy="9.5" r="9.47"/>
	<g>
		<path d="M11.9,12.57v0.89H6.94c-0.01-0.22,0.03-0.44,0.11-0.64c0.13-0.34,0.33-0.67,0.61-1s0.68-0.71,1.21-1.14
			c0.82-0.67,1.37-1.2,1.66-1.59c0.29-0.39,0.43-0.76,0.43-1.11c0-0.37-0.13-0.67-0.39-0.93c-0.26-0.25-0.6-0.38-1.02-0.38
			c-0.44,0-0.8,0.13-1.07,0.4s-0.4,0.64-0.41,1.11l-0.95-0.1c0.06-0.71,0.31-1.25,0.73-1.62c0.42-0.37,0.99-0.56,1.71-0.56
			c0.72,0,1.29,0.2,1.71,0.6c0.42,0.4,0.63,0.9,0.63,1.49c0,0.3-0.06,0.6-0.18,0.89s-0.33,0.6-0.61,0.92s-0.76,0.76-1.42,1.32
			c-0.55,0.47-0.91,0.78-1.07,0.95c-0.16,0.17-0.29,0.33-0.39,0.5H11.9z"/>
	</g>
</g>
</svg>
