<?xml version="1.0" encoding="utf-8"?>
<!-- Generator: Adobe Illustrator 26.2.1, SVG Export Plug-In . SVG Version: 6.00 Build 0)  -->
<svg version="1.1" id="Layer_1" xmlns="http://www.w3.org/2000/svg" xmlns:xlink="http://www.w3.org/1999/xlink" x="0px" y="0px"
	 viewBox="0 0 19 19" style="enable-background:new 0 0 19 19;" xml:space="preserve">
<style type="text/css">
	.st0{fill:#F04187;}
</style>
<g>
	<circle class="st0" cx="9.5" cy="9.5" r="9.47"/>
	<g>
		<path d="M9.04,13.25c-1.46,0-2.15-0.9-2.18-0.94l0.8-0.6c0.01,0.02,0.44,0.54,1.37,0.54c1.1,0,1.62-0.48,1.62-1.52
			c0-1.02-0.41-1.44-1.43-1.44c-0.58,0-0.86,0.15-0.86,0.15L8.26,9.5L7.17,9.51l0.72-3.84l3.46,0.05l-0.01,1L8.72,6.68L8.4,8.38
			c0.21-0.05,0.49-0.09,0.83-0.09c1.57,0,2.43,0.87,2.43,2.44C11.66,12.31,10.68,13.25,9.04,13.25z"/>
	</g>
</g>
</svg>
