<?xml version="1.0" encoding="utf-8"?>
<!-- Generator: Adobe Illustrator 26.2.1, SVG Export Plug-In . SVG Version: 6.00 Build 0)  -->
<svg version="1.1" id="Layer_1" xmlns="http://www.w3.org/2000/svg" xmlns:xlink="http://www.w3.org/1999/xlink" x="0px" y="0px"
	 viewBox="0 0 19 19" style="enable-background:new 0 0 19 19;" xml:space="preserve">
<style type="text/css">
	.st0{fill:#F04187;}
</style>
<g>
	<circle class="st0" cx="9.5" cy="9.5" r="9.47"/>
	<g>
		<path d="M11.83,10.66c-0.03,0.35-0.11,0.66-0.26,0.94c-0.15,0.28-0.34,0.51-0.58,0.69c-0.24,0.19-0.52,0.32-0.84,0.41
			c-0.32,0.09-0.66,0.12-1.04,0.09c-0.37-0.03-0.71-0.11-1.02-0.23c-0.31-0.13-0.57-0.3-0.78-0.51c-0.21-0.22-0.37-0.47-0.47-0.75
			C6.74,11,6.7,10.67,6.73,10.32c0.02-0.31,0.11-0.61,0.25-0.9C7.12,9.13,7.3,8.82,7.51,8.5l2.12-3.17l1.32,0.1l-2,2.93
			C9.07,8.32,9.2,8.3,9.33,8.29c0.13-0.01,0.26-0.01,0.4,0c0.31,0.02,0.61,0.1,0.87,0.22c0.27,0.12,0.5,0.29,0.69,0.5
			c0.19,0.21,0.34,0.45,0.43,0.73C11.82,10.02,11.85,10.32,11.83,10.66z M10.59,10.59c0.03-0.38-0.07-0.7-0.28-0.97
			C10.1,9.35,9.78,9.21,9.37,9.17C8.98,9.15,8.66,9.24,8.4,9.45C8.14,9.66,8,9.98,7.97,10.39c-0.03,0.41,0.07,0.74,0.29,0.99
			c0.22,0.26,0.53,0.4,0.92,0.43c0.39,0.03,0.71-0.07,0.98-0.29C10.41,11.3,10.56,10.99,10.59,10.59z"/>
	</g>
</g>
</svg>
